<svg version="1.1" viewBox="0.00 0.00 1028.00 1028.00" xmlns="http://www.w3.org/2000/svg" xmlns:xlink="http://www.w3.org/1999/xlink">
<g id="Parent-Group"><g id="Group-b2bac9"><path fill="#b2bac9" d="   M 636.57 740.80   Q 637.52 740.06 636.37 740.42   Q 629.28 742.65 622.29 744.14   Q 587.48 751.59 551.12 750.02   Q 540.79 749.58 530.24 748.70   Q 529.60 748.64 529.42 749.26   C 519.99 783.01 496.76 809.03 473.54 834.23   Q 463.65 844.97 453.22 852.09   C 445.49 857.37 433.18 857.27 430.16 846.51   Q 429.86 845.44 428.82 845.01   C 420.33 841.59 413.79 837.61 414.65 827.28   Q 414.69 826.74 414.27 826.40   Q 413.08 825.44 411.86 824.49   Q 404.29 818.58 409.04 809.29   Q 412.29 802.91 417.59 796.46   Q 438.43 771.12 466.39 749.86   Q 472.12 745.50 478.38 741.95   Q 479.11 741.53 478.29 741.37   C 454.18 736.63 430.85 730.54 408.24 720.98   Q 407.38 720.62 406.58 721.12   C 383.99 735.47 361.01 746.96 335.52 753.06   C 328.08 754.84 314.99 756.00 316.54 743.92   Q 316.98 740.49 318.82 737.54   C 328.25 722.36 339.00 707.26 353.56 696.50   A 0.36 0.36 0.0 0 0 353.58 695.93   C 344.47 688.42 335.36 680.05 327.73 670.82   Q 312.71 652.68 302.15 632.65   Q 286.34 602.68 275.11 573.81   Q 264.51 546.58 256.63 513.93   Q 248.75 481.29 242.63 451.46   A 0.31 0.31 0.0 0 0 242.10 451.31   Q 219.06 475.47 198.13 492.29   C 182.09 505.18 161.93 514.67 142.95 522.22   C 129.93 527.40 116.56 530.29 102.46 533.04   Q 88.53 535.76 74.03 534.01   C 63.47 532.73 57.36 526.84 65.71 517.19   C 70.01 512.21 75.71 508.30 81.69 505.25   Q 84.09 504.03 85.78 502.00   Q 90.45 496.43 99.32 492.04   Q 100.75 491.33 101.62 489.90   Q 110.32 475.56 126.10 466.63   C 126.88 466.19 127.24 465.18 127.43 464.35   Q 129.50 455.15 133.47 449.73   Q 137.72 443.92 141.75 438.72   Q 145.16 434.31 144.44 429.82   C 143.79 425.72 143.14 422.35 144.60 418.19   Q 146.82 411.84 149.30 405.73   C 150.35 403.13 149.66 400.37 148.28 397.98   C 145.13 392.57 144.28 386.92 145.06 380.58   Q 146.03 372.82 146.59 365.01   C 146.84 361.62 143.39 358.28 141.48 355.75   Q 132.06 343.29 131.52 327.34   C 131.49 326.36 130.70 324.75 130.00 323.91   C 123.25 315.78 116.85 308.19 117.39 297.17   Q 117.42 296.45 116.83 296.04   C 110.52 291.74 87.14 276.28 97.04 266.47   C 103.12 260.45 114.73 258.79 123.59 258.72   C 198.71 258.09 257.49 319.18 273.37 388.76   A 0.28 0.28 0.0 0 0 273.81 388.92   Q 277.14 386.46 279.95 384.04   Q 301.76 365.29 320.72 350.81   Q 352.23 326.75 387.87 311.74   Q 388.46 311.50 388.15 310.94   Q 379.33 295.10 380.72 278.31   Q 381.55 268.40 388.77 258.80   Q 389.24 258.17 388.83 257.51   C 385.01 251.26 387.51 243.70 391.29 237.64   C 395.62 230.71 401.79 224.74 409.05 220.70   Q 410.56 219.86 411.33 218.15   C 418.34 202.47 433.17 192.98 447.99 185.12   C 450.71 183.67 452.29 181.75 454.15 179.41   C 463.00 168.21 480.24 164.22 493.67 166.46   C 496.18 166.88 498.44 167.69 501.06 167.10   C 513.14 164.34 525.03 163.41 537.72 164.71   Q 561.81 167.17 579.14 185.40   Q 592.00 198.93 598.77 210.91   C 611.69 233.80 621.46 263.07 620.00 288.79   Q 619.96 289.46 620.62 289.61   C 691.56 305.33 751.05 351.40 779.18 418.31   Q 784.40 430.73 786.48 442.26   A 1.10 1.09 -85.5 0 0 787.20 443.11   C 823.71 455.72 832.63 500.87 806.53 528.00   Q 806.13 528.41 806.15 528.99   C 807.22 561.32 800.57 592.46 785.74 621.55   Q 754.50 682.80 695.59 716.15   Q 695.15 716.40 695.15 716.91   Q 695.20 727.97 691.92 740.73   Q 687.05 759.65 679.79 772.68   Q 664.11 800.82 644.20 820.58   C 639.36 825.39 633.36 829.41 626.06 826.95   C 621.86 825.53 618.01 822.39 616.30 818.22   C 614.94 814.92 612.85 814.46 610.50 812.29   Q 605.91 808.06 606.16 800.97   A 2.39 2.39 0.0 0 0 605.16 798.93   C 599.20 794.67 593.61 789.36 596.63 781.57   C 599.05 775.35 604.18 769.80 609.64 764.71   C 618.26 756.68 627.16 748.22 636.57 740.80   Z   M 481.09 741.66   Q 474.73 744.83 469.91 748.39   Q 443.00 768.25 421.79 792.82   Q 416.49 798.95 412.00 805.71   C 409.38 809.66 406.54 815.96 409.12 820.18   Q 411.02 823.29 414.79 825.51   A 1.77 1.76 -70.6 0 1 415.63 827.28   C 414.07 837.61 422.16 841.25 429.86 844.61   Q 430.26 844.79 430.48 845.17   C 431.35 846.67 431.54 848.39 432.52 849.82   C 436.15 855.10 443.60 855.73 449.14 853.20   C 456.00 850.06 462.59 844.07 467.90 838.66   Q 488.34 817.85 504.17 796.86   C 514.87 782.66 524.28 765.76 528.64 748.44   A 0.85 0.84 8.7 0 1 529.51 747.81   Q 542.25 748.68 555.50 749.41   Q 576.09 750.54 607.25 746.04   Q 618.66 744.39 630.98 741.11   C 634.52 740.17 637.96 738.76 641.47 738.04   Q 642.29 737.87 641.61 738.36   C 628.73 747.57 616.01 759.32 605.44 770.10   Q 602.08 773.53 599.05 778.42   C 593.83 786.84 597.86 792.96 605.19 797.75   C 607.07 798.97 607.15 801.05 607.18 803.04   C 607.27 807.89 609.87 811.39 613.91 813.82   C 616.76 815.55 616.86 818.59 618.81 820.93   Q 622.60 825.46 628.33 826.61   C 634.97 827.94 640.76 822.97 645.27 818.30   C 657.49 805.67 668.14 791.10 676.96 775.90   Q 688.82 755.47 693.33 729.45   Q 694.44 723.09 694.18 716.38   A 0.91 0.91 0.0 0 1 694.65 715.55   C 742.88 688.78 779.58 644.33 796.89 592.21   Q 802.15 576.39 804.20 556.78   Q 805.80 541.46 805.38 528.61   Q 805.36 528.02 805.76 527.59   Q 822.70 509.44 820.30 485.58   C 818.27 465.37 805.37 450.68 786.41 443.71   A 0.96 0.95 5.0 0 1 785.80 442.99   Q 783.50 431.32 778.93 420.08   C 751.43 352.43 690.57 305.69 619.71 290.33   A 0.74 0.73 -82.7 0 1 619.13 289.57   C 620.35 267.16 614.01 245.54 604.67 224.38   Q 594.78 201.99 576.65 184.18   C 566.62 174.32 555.17 168.20 541.28 166.12   C 527.19 164.00 514.08 164.93 500.43 168.16   Q 499.02 168.49 497.67 168.16   Q 480.53 163.99 465.36 171.72   Q 459.52 174.69 456.61 177.98   C 453.71 181.25 451.91 184.08 447.70 186.28   Q 440.51 190.04 431.44 196.20   Q 417.63 205.58 412.01 218.77   C 411.26 220.53 409.83 221.33 408.29 222.24   Q 395.85 229.59 389.96 241.91   C 387.59 246.87 386.69 252.49 389.70 257.36   A 1.63 1.62 48.3 0 1 389.60 259.22   C 384.31 265.96 381.40 273.67 381.38 282.53   Q 381.36 297.65 389.73 311.82   Q 389.79 311.91 389.68 311.96   Q 349.40 328.78 314.06 356.99   Q 297.28 370.38 280.92 384.33   Q 277.26 387.45 273.36 390.54   A 0.32 0.32 0.0 0 1 272.85 390.36   C 259.34 329.14 213.22 274.40 149.56 261.88   C 139.61 259.92 129.69 259.58 119.60 259.88   Q 112.09 260.11 105.29 262.59   C 99.06 264.86 92.55 269.19 96.95 276.86   Q 98.56 279.67 100.62 281.84   Q 107.45 289.03 117.33 295.27   Q 118.63 296.09 118.43 297.63   C 117.14 307.46 124.47 315.86 130.31 322.95   C 131.42 324.31 132.36 326.04 132.42 327.83   C 132.81 340.13 137.43 349.81 145.18 359.18   C 146.12 360.31 147.64 362.71 147.54 364.01   Q 146.96 371.90 146.22 378.26   Q 145.42 385.25 145.81 388.20   Q 146.48 393.31 149.27 398.13   Q 151.62 402.19 150.16 405.96   Q 148.12 411.19 145.87 417.16   C 144.21 421.59 144.23 425.09 145.34 429.27   C 146.13 432.27 144.72 436.09 143.02 438.45   C 139.08 443.92 134.21 449.18 131.37 455.19   Q 129.25 459.67 128.31 464.59   Q 127.91 466.68 125.91 467.81   Q 110.86 476.35 102.49 490.22   C 101.63 491.64 100.37 492.58 98.87 493.31   Q 91.01 497.16 86.25 502.85   C 84.39 505.07 82.12 506.02 79.68 507.35   C 73.64 510.62 64.52 517.16 62.82 524.07   C 61.60 529.04 67.00 531.74 71.02 532.51   Q 85.53 535.32 101.19 532.32   Q 118.13 529.08 129.09 525.93   Q 146.76 520.85 170.76 508.50   Q 188.96 499.13 202.52 487.57   Q 223.41 469.76 242.59 449.48   A 0.36 0.36 0.0 0 1 243.20 449.66   Q 249.91 483.27 259.21 520.75   C 268.69 558.93 283.78 596.01 302.07 630.80   C 315.27 655.90 332.12 677.82 354.61 695.50   A 0.86 0.85 -44.3 0 1 354.59 696.86   C 339.91 707.72 328.90 722.89 319.42 738.34   C 315.74 744.35 316.21 752.95 325.28 753.23   Q 330.26 753.38 335.01 752.25   Q 362.00 745.80 387.45 731.46   Q 396.87 726.16 406.69 719.98   A 1.49 1.46 -48.9 0 1 408.05 719.87   Q 431.52 730.03 457.31 736.00   Q 469.71 738.88 480.99 740.96   A 0.37 0.37 0.0 0 1 481.09 741.66   Z" />
<path fill="#b2bac9" d="   M 569.17 262.33   C 573.91 260.65 575.01 257.75 577.07 253.96   Q 577.31 253.52 577.79 253.35   Q 579.57 252.73 580.82 253.18   Q 585.78 254.95 590.59 255.36   Q 593.40 266.09 592.90 278.00   Q 592.73 281.92 591.70 285.54   Q 591.60 285.90 591.23 285.87   C 563.27 283.76 535.64 284.26 507.91 287.01   Q 507.06 287.10 507.44 286.33   C 508.17 284.87 508.92 283.12 509.03 281.50   C 509.95 267.93 504.30 254.48 496.38 243.40   Q 501.41 242.56 505.93 240.71   C 510.11 239.00 513.87 239.30 517.44 236.38   A 0.61 0.61 0.0 0 1 518.44 236.83   L 518.59 240.81   Q 518.61 241.34 519.00 241.70   C 521.41 243.92 523.76 244.57 526.71 245.41   C 528.77 245.99 530.20 247.49 532.29 248.29   Q 540.15 264.23 542.58 281.95   Q 542.63 282.27 542.83 282.55   Q 542.97 282.75 543.10 282.96   A 0.62 0.62 0.0 0 0 544.24 282.72   C 546.29 266.35 536.37 245.68 527.08 231.63   Q 533.00 230.26 538.93 228.89   Q 538.97 228.88 545.84 227.79   Q 550.05 227.12 553.93 225.05   Q 565.90 252.31 567.57 282.28   Q 567.60 282.84 568.12 283.06   Q 568.52 283.23 568.88 282.97   Q 569.25 282.72 569.31 282.26   C 570.30 275.22 569.99 269.76 569.17 262.33   Z" />
<path fill="#b2bac9" d="   M 477.14 245.95   Q 483.50 242.41 491.37 241.77   Q 497.39 250.79 501.38 260.99   C 504.81 269.76 505.76 277.15 504.22 286.06   A 1.75 1.74 0.4 0 1 502.76 287.49   L 492.71 289.02   Q 491.97 289.13 492.10 288.39   C 494.82 271.95 486.63 258.60 477.14 245.95   Z" />
<path fill="#b2bac9" d="   M 456.29 254.11   C 460.35 251.29 463.27 248.47 468.28 246.54   Q 469.65 246.02 471.33 243.72   Q 478.05 252.77 482.05 259.96   Q 489.55 273.42 488.56 289.07   A 0.61 0.60 -2.4 0 1 488.04 289.63   L 481.75 290.42   A 0.80 0.79 77.0 0 1 480.90 289.88   C 479.87 286.90 478.80 283.63 477.29 280.94   Q 468.86 265.89 456.29 254.11   Z" />
<path fill="#b2bac9" d="   M 596.03 283.81   Q 598.19 269.43 594.70 255.76   C 598.40 255.33 608.89 256.22 610.36 260.78   C 612.51 267.47 612.88 274.18 614.23 280.86   C 614.49 282.16 614.29 283.56 613.92 284.82   A 0.95 0.95 0.0 0 1 612.91 285.49   L 596.03 283.81   Z" />
<path fill="#b2bac9" d="   M 433.39 265.13   Q 437.49 261.39 442.19 261.23   Q 452.66 260.89 457.67 260.33   Q 469.64 273.31 477.87 290.21   A 0.53 0.53 0.0 0 1 477.46 290.97   L 463.32 292.74   Q 462.81 292.81 462.59 292.35   Q 459.22 285.49 454.53 280.97   Q 445.58 272.35 433.39 265.13   Z" />
<path fill="#b2bac9" d="   M 446.86 279.07   Q 453.83 284.53 459.88 292.55   A 0.39 0.39 0.0 0 1 459.64 293.17   L 443.26 296.04   A 1.19 1.19 0.0 0 1 442.00 295.41   C 441.10 293.68 439.87 291.99 438.45 290.67   Q 428.21 281.21 415.16 273.88   Q 421.83 271.64 428.33 270.54   C 431.54 269.99 435.56 269.86 435.86 274.16   Q 435.90 274.76 435.51 275.21   Q 433.95 276.99 433.02 279.35   A 0.88 0.88 0.0 0 0 433.94 280.55   L 446.86 279.07   Z" />
<path fill="#b2bac9" d="   M 416.15 277.33   Q 428.45 285.62 439.29 296.09   A 0.58 0.58 0.0 0 1 438.99 297.08   C 422.92 299.88 408.63 305.23 392.48 310.90   Q 391.73 311.16 391.47 310.41   L 388.38 301.41   Q 389.00 300.11 389.13 298.47   C 389.39 295.42 390.80 292.99 392.09 290.25   C 392.55 289.28 393.25 288.85 394.25 288.57   Q 395.38 288.25 394.44 287.56   L 393.63 286.96   A 1.56 1.56 0.0 0 1 393.17 284.99   C 395.88 279.71 401.48 277.42 407.14 275.57   C 408.90 274.99 410.17 277.04 410.42 278.47   Q 410.79 280.61 410.61 282.76   A 0.64 0.63 -14.5 0 0 411.60 283.34   Q 415.53 280.66 416.15 277.33   Z" />
<path fill="#b2bac9" d="   M 223.81 349.04   C 235.28 362.43 245.53 377.20 255.50 391.74   Q 256.87 393.74 260.26 397.03   C 261.07 397.81 261.80 397.85 262.69 397.25   Q 262.84 397.45 263.60 397.66   L 252.74 405.71   A 0.48 0.48 0.0 0 1 252.00 405.48   Q 251.24 403.25 249.60 401.23   C 244.57 395.04 239.30 389.15 233.45 383.62   Q 215.27 366.44 195.51 351.08   Q 197.14 350.00 198.75 348.89   C 203.20 345.81 210.47 345.79 215.67 346.66   Q 218.99 347.22 220.63 350.21   A 1.04 1.01 -46.4 0 1 220.64 351.17   Q 219.87 352.67 219.26 354.34   Q 218.78 355.67 219.76 354.65   Q 222.03 352.26 223.81 349.04   Z" />
<path fill="#b2bac9" d="   M 188.01 383.33   Q 189.46 379.19 193.28 376.70   A 1.49 1.49 0.0 0 0 193.52 374.40   Q 188.77 369.60 181.67 366.33   A 1.85 1.85 0.0 0 1 180.60 364.84   C 180.28 361.79 183.59 361.82 185.54 362.08   A 1.46 1.45 -74.9 0 0 187.08 361.19   Q 188.96 356.63 192.79 353.27   Q 213.50 369.41 226.61 382.40   Q 238.84 394.51 251.07 406.53   A 0.50 0.49 -49.7 0 1 251.12 407.18   C 250.42 408.16 249.45 408.12 248.40 407.60   Q 237.49 402.23 228.81 398.93   Q 208.40 391.17 188.01 383.33   Z" />
<path fill="#b2bac9" d="   M 187.57 416.59   L 190.71 411.36   Q 190.98 410.91 190.61 410.54   Q 186.34 406.18 180.44 404.33   A 0.82 0.82 0.0 0 1 180.05 403.03   Q 180.53 402.44 180.33 401.73   Q 180.15 401.09 179.55 400.80   C 177.25 399.70 173.12 398.27 173.13 395.28   A 0.99 0.99 0.0 0 1 173.98 394.31   C 178.93 393.62 182.20 389.15 184.23 384.46   Q 188.52 386.66 192.96 388.53   Q 219.54 399.70 246.75 410.39   A 0.59 0.59 0.0 0 1 246.94 411.36   Q 246.12 412.17 244.68 412.34   C 225.70 414.67 206.73 417.59 187.57 416.59   Z" />
<path fill="#b2bac9" d="   M 176.32 446.67   Q 176.30 444.91 177.13 443.63   Q 177.45 443.14 178.02 442.96   C 181.11 442.01 186.89 440.57 187.70 437.39   Q 189.94 428.57 191.02 419.59   Q 217.12 420.75 243.33 416.17   A 0.52 0.52 0.0 0 1 243.94 416.64   C 244.06 418.07 243.12 419.09 241.93 419.72   Q 228.99 426.57 214.44 433.42   Q 196.06 442.08 176.32 446.67   Z" />
<path fill="#b2bac9" d="   M 98.22 528.71   C 95.98 524.39 96.77 520.36 100.34 517.13   C 104.92 512.99 109.01 508.81 115.10 508.25   Q 118.63 507.92 121.49 505.09   Q 126.49 500.14 130.65 494.84   Q 130.95 494.45 131.44 494.39   C 133.42 494.14 135.50 494.51 137.15 493.23   Q 137.67 492.82 137.76 492.18   C 138.12 489.61 140.19 488.83 141.24 486.60   Q 165.22 479.26 180.81 471.31   Q 196.74 463.18 208.57 453.91   C 218.78 445.90 229.74 435.01 240.82 426.12   Q 241.54 425.54 241.42 426.46   C 241.24 427.93 240.92 429.37 241.07 430.86   Q 241.68 437.19 242.24 444.11   A 1.96 1.96 0.0 0 1 241.61 445.72   C 229.06 457.19 216.70 469.25 204.18 480.64   Q 188.18 495.18 162.85 507.83   Q 130.34 524.07 98.22 528.71   Z" />
<path fill="#b2bac9" d="   M 154.30 479.64   Q 152.02 478.79 149.56 479.59   A 0.74 0.74 0.0 0 1 148.67 478.55   Q 152.17 471.73 158.56 468.57   C 162.52 466.62 162.63 463.04 164.66 459.74   C 166.76 456.32 169.91 455.14 173.02 453.02   Q 174.70 451.88 175.18 449.86   Q 201.52 444.44 225.06 432.63   Q 226.33 431.99 225.43 433.09   Q 224.25 434.53 222.61 436.10   Q 192.81 464.77 154.30 479.64   Z" />
<path fill="#b2bac9" d="   M 350.32 704.88   Q 380.61 677.71 420.51 676.25   Q 423.70 676.13 425.83 677.23   Q 426.90 677.79 425.73 678.09   Q 414.40 681.07 402.98 685.71   C 385.52 692.81 368.38 699.92 350.68 705.51   Q 349.04 706.03 350.32 704.88   Z" />
<path fill="#b2bac9" d="   M 432.48 680.90   Q 432.16 681.87 432.36 682.51   A 0.74 0.73 -10.6 0 0 433.13 683.03   Q 435.09 682.87 436.82 683.82   Q 436.99 683.92 436.96 684.11   Q 436.93 684.29 436.82 684.35   Q 436.50 684.49 436.83 684.60   Q 437.09 684.69 437.48 684.82   Q 428.71 685.28 423.60 688.07   Q 391.82 705.46 381.87 710.61   Q 358.72 722.61 332.82 725.94   A 0.47 0.47 0.0 0 1 332.39 725.19   Q 337.96 717.95 344.68 710.39   Q 346.21 708.66 348.20 708.25   C 359.56 705.87 369.17 703.56 380.25 699.11   Q 395.59 692.96 412.35 686.59   Q 422.12 682.87 432.48 680.90   Z" />
<path fill="#b2bac9" d="   M 440.62 687.02   Q 440.46 689.68 442.45 692.11   C 426.17 699.51 412.30 712.09 397.13 721.00   C 376.34 733.22 358.44 742.01 335.66 747.96   C 332.11 748.88 328.23 749.37 324.60 749.06   C 318.99 748.58 320.23 743.35 322.34 740.25   Q 326.38 734.32 330.18 728.60   A 1.65 1.63 -72.9 0 1 331.54 727.87   Q 337.07 727.87 343.24 727.00   Q 363.61 724.13 382.74 714.76   Q 397.54 707.52 420.93 694.42   Q 428.35 690.26 440.62 687.02   Z" />
<path fill="#b2bac9" d="   M 661.47 792.64   L 654.01 792.49   A 0.79 0.79 0.0 0 0 653.29 793.63   C 654.61 796.31 655.52 797.74 653.01 800.25   Q 651.18 802.09 649.07 802.71   Q 648.51 802.88 648.15 802.42   C 646.63 800.53 644.07 797.66 643.56 795.27   Q 643.28 793.95 642.57 793.43   Q 653.23 780.28 657.25 774.49   Q 667.33 759.95 674.89 742.41   Q 679.32 732.12 680.58 723.62   A 1.07 1.06 -9.5 0 1 681.15 722.83   L 690.89 717.84   A 0.69 0.69 0.0 0 1 691.89 718.52   Q 689.80 742.63 679.10 764.34   Q 672.45 777.84 661.47 792.64   Z" />
<path fill="#b2bac9" d="   M 634.01 798.27   Q 629.37 795.83 626.64 791.56   Q 625.99 790.54 625.79 788.92   Q 625.62 787.54 625.26 786.12   Q 631.22 779.61 637.40 772.90   Q 655.18 753.59 667.28 730.68   C 668.60 728.18 673.49 726.19 676.33 725.11   A 0.54 0.53 88.1 0 1 677.03 725.77   C 668.82 752.40 652.71 777.74 634.01 798.27   Z" />
<path fill="#b2bac9" d="   M 621.34 785.50   L 619.86 776.66   A 1.67 1.66 -34.5 0 1 620.08 775.50   Q 623.36 770.01 623.38 763.14   A 2.08 2.08 0.0 0 1 623.67 762.08   Q 625.16 759.52 625.32 756.89   Q 635.72 746.98 647.11 737.60   C 651.34 734.12 657.39 732.54 662.52 731.26   Q 663.72 730.96 663.06 732.01   Q 645.02 760.79 621.34 785.50   Z" />
<path fill="#b2bac9" d="   M 443.32 789.17   Q 440.91 784.68 441.67 779.58   Q 441.74 779.08 442.05 778.69   Q 443.62 776.73 443.35 775.43   Q 462.01 756.87 484.63 742.66   Q 487.51 740.85 490.41 742.74   A 0.32 0.31 41.0 0 1 490.45 743.24   Q 475.52 756.86 462.62 768.87   Q 457.23 773.87 443.32 789.17   Z" />
<path fill="#b2bac9" d="   M 449.36 819.51   C 445.16 817.60 437.03 813.96 436.73 810.51   Q 436.43 807.11 438.20 802.98   Q 438.25 802.87 439.91 800.02   Q 440.94 798.25 440.81 796.63   C 457.77 778.15 475.03 762.10 495.53 743.71   Q 496.04 743.25 496.72 743.35   L 508.88 745.09   Q 509.75 745.21 509.17 745.88   C 488.34 769.38 470.23 795.11 449.36 819.51   Z" />
<path fill="#b2bac9" d="   M 480.94 818.00   Q 471.74 821.45 466.81 820.93   Q 461.80 820.41 458.42 814.72   Q 484.69 782.16 510.76 749.36   C 511.61 748.28 512.09 747.14 512.87 746.11   A 1.01 1.01 0.0 0 1 513.76 745.72   L 525.15 746.79   A 0.66 0.66 0.0 0 1 525.72 747.64   C 522.09 759.94 517.34 770.07 510.10 781.12   Q 497.02 801.11 480.94 818.00   Z" />
</g><g id="Group-585563"><path fill="#585563" d="   M 481.09 741.66   A 0.37 0.37 0.0 0 0 480.99 740.96   Q 469.71 738.88 457.31 736.00   Q 431.52 730.03 408.05 719.87   A 1.49 1.46 -48.9 0 0 406.69 719.98   Q 396.87 726.16 387.45 731.46   Q 362.00 745.80 335.01 752.25   Q 330.26 753.38 325.28 753.23   C 316.21 752.95 315.74 744.35 319.42 738.34   C 328.90 722.89 339.91 707.72 354.59 696.86   A 0.86 0.85 -44.3 0 0 354.61 695.50   C 332.12 677.82 315.27 655.90 302.07 630.80   C 283.78 596.01 268.69 558.93 259.21 520.75   Q 249.91 483.27 243.20 449.66   A 0.36 0.36 0.0 0 0 242.59 449.48   Q 223.41 469.76 202.52 487.57   Q 188.96 499.13 170.76 508.50   Q 146.76 520.85 129.09 525.93   Q 118.13 529.08 101.19 532.32   Q 85.53 535.32 71.02 532.51   C 67.00 531.74 61.60 529.04 62.82 524.07   C 64.52 517.16 73.64 510.62 79.68 507.35   C 82.12 506.02 84.39 505.07 86.25 502.85   Q 91.01 497.16 98.87 493.31   C 100.37 492.58 101.63 491.64 102.49 490.22   Q 110.86 476.35 125.91 467.81   Q 127.91 466.68 128.31 464.59   Q 129.25 459.67 131.37 455.19   C 134.21 449.18 139.08 443.92 143.02 438.45   C 144.72 436.09 146.13 432.27 145.34 429.27   C 144.23 425.09 144.21 421.59 145.87 417.16   Q 148.12 411.19 150.16 405.96   Q 151.62 402.19 149.27 398.13   Q 146.48 393.31 145.81 388.20   Q 145.42 385.25 146.22 378.26   Q 146.96 371.90 147.54 364.01   C 147.64 362.71 146.12 360.31 145.18 359.18   C 137.43 349.81 132.81 340.13 132.42 327.83   C 132.36 326.04 131.42 324.31 130.31 322.95   C 124.47 315.86 117.14 307.46 118.43 297.63   Q 118.63 296.09 117.33 295.27   Q 107.45 289.03 100.62 281.84   Q 98.56 279.67 96.95 276.86   C 92.55 269.19 99.06 264.86 105.29 262.59   Q 112.09 260.11 119.60 259.88   C 129.69 259.58 139.61 259.92 149.56 261.88   C 213.22 274.40 259.34 329.14 272.85 390.36   A 0.32 0.32 0.0 0 0 273.36 390.54   Q 277.26 387.45 280.92 384.33   Q 297.28 370.38 314.06 356.99   Q 349.40 328.78 389.68 311.96   Q 389.79 311.91 389.73 311.82   Q 381.36 297.65 381.38 282.53   C 381.40 273.67 384.31 265.96 389.60 259.22   A 1.63 1.62 48.3 0 0 389.70 257.36   C 386.69 252.49 387.59 246.87 389.96 241.91   Q 395.85 229.59 408.29 222.24   C 409.83 221.33 411.26 220.53 412.01 218.77   Q 417.63 205.58 431.44 196.20   Q 440.51 190.04 447.70 186.28   C 451.91 184.08 453.71 181.25 456.61 177.98   Q 459.52 174.69 465.36 171.72   Q 480.53 163.99 497.67 168.16   Q 499.02 168.49 500.43 168.16   C 514.08 164.93 527.19 164.00 541.28 166.12   C 555.17 168.20 566.62 174.32 576.65 184.18   Q 594.78 201.99 604.67 224.38   C 614.01 245.54 620.35 267.16 619.13 289.57   A 0.74 0.73 -82.7 0 0 619.71 290.33   C 690.57 305.69 751.43 352.43 778.93 420.08   Q 783.50 431.32 785.80 442.99   A 0.96 0.95 5.0 0 0 786.41 443.71   C 805.37 450.68 818.27 465.37 820.30 485.58   Q 822.70 509.44 805.76 527.59   Q 805.36 528.02 805.38 528.61   Q 805.80 541.46 804.20 556.78   Q 802.15 576.39 796.89 592.21   C 779.58 644.33 742.88 688.78 694.65 715.55   A 0.91 0.91 0.0 0 0 694.18 716.38   Q 694.44 723.09 693.33 729.45   Q 688.82 755.47 676.96 775.90   C 668.14 791.10 657.49 805.67 645.27 818.30   C 640.76 822.97 634.97 827.94 628.33 826.61   Q 622.60 825.46 618.81 820.93   C 616.86 818.59 616.76 815.55 613.91 813.82   C 609.87 811.39 607.27 807.89 607.18 803.04   C 607.15 801.05 607.07 798.97 605.19 797.75   C 597.86 792.96 593.83 786.84 599.05 778.42   Q 602.08 773.53 605.44 770.10   C 616.01 759.32 628.73 747.57 641.61 738.36   Q 642.29 737.87 641.47 738.04   C 637.96 738.76 634.52 740.17 630.98 741.11   Q 618.66 744.39 607.25 746.04   Q 576.09 750.54 555.50 749.41   Q 542.25 748.68 529.51 747.81   A 0.85 0.84 8.7 0 0 528.64 748.44   C 524.28 765.76 514.87 782.66 504.17 796.86   Q 488.34 817.85 467.90 838.66   C 462.59 844.07 456.00 850.06 449.14 853.20   C 443.60 855.73 436.15 855.10 432.52 849.82   C 431.54 848.39 431.35 846.67 430.48 845.17   Q 430.26 844.79 429.86 844.61   C 422.16 841.25 414.07 837.61 415.63 827.28   A 1.77 1.76 -70.6 0 0 414.79 825.51   Q 411.02 823.29 409.12 820.18   C 406.54 815.96 409.38 809.66 412.00 805.71   Q 416.49 798.95 421.79 792.82   Q 443.00 768.25 469.91 748.39   Q 474.73 744.83 481.09 741.66   Z   M 392.88 257.06   Q 393.08 256.96 393.16 257.13   Q 393.27 257.38 393.12 257.61   Q 388.16 265.02 386.35 270.61   C 383.07 280.68 384.48 291.22 388.38 301.41   L 391.47 310.41   Q 391.73 311.16 392.48 310.90   C 408.63 305.23 422.92 299.88 438.99 297.08   A 0.58 0.58 0.0 0 0 439.29 296.09   Q 428.45 285.62 416.15 277.33   C 411.69 274.34 404.77 270.59 399.53 270.61   Q 398.62 270.61 399.43 270.19   Q 401.54 269.10 403.26 269.47   Q 409.40 270.75 415.16 273.88   Q 428.21 281.21 438.45 290.67   C 439.87 291.99 441.10 293.68 442.00 295.41   A 1.19 1.19 0.0 0 0 443.26 296.04   L 459.64 293.17   A 0.39 0.39 0.0 0 0 459.88 292.55   Q 453.83 284.53 446.86 279.07   Q 436.53 269.77 424.17 263.09   Q 411.63 256.30 397.92 255.95   C 396.31 255.91 395.04 256.63 393.44 256.90   Q 394.98 255.74 396.39 255.31   C 399.96 255.40 403.43 254.52 406.89 255.10   Q 421.15 257.49 433.39 265.13   Q 445.58 272.35 454.53 280.97   Q 459.22 285.49 462.59 292.35   Q 462.81 292.81 463.32 292.74   L 477.46 290.97   A 0.53 0.53 0.0 0 0 477.87 290.21   Q 469.64 273.31 457.67 260.33   Q 443.11 245.18 426.11 237.05   L 411.71 232.71   Q 411.27 232.58 411.60 232.26   Q 411.76 232.10 412.00 232.12   Q 418.81 232.80 423.13 233.87   L 427.19 235.32   Q 443.39 242.12 456.29 254.11   Q 468.86 265.89 477.29 280.94   C 478.80 283.63 479.87 286.90 480.90 289.88   A 0.80 0.79 77.0 0 0 481.75 290.42   L 488.04 289.63   A 0.61 0.60 -2.4 0 0 488.56 289.07   Q 489.55 273.42 482.05 259.96   Q 478.05 252.77 471.33 243.72   Q 463.67 233.12 454.87 223.49   Q 446.50 214.99 435.26 210.65   Q 434.99 210.55 435.09 210.27   L 435.18 210.03   Q 435.28 209.75 435.55 209.85   Q 448.34 214.17 457.89 223.55   Q 468.63 234.15 477.14 245.95   C 486.63 258.60 494.82 271.95 492.10 288.39   Q 491.97 289.13 492.71 289.02   L 502.76 287.49   A 1.75 1.74 0.4 0 0 504.22 286.06   C 505.76 277.15 504.81 269.76 501.38 260.99   Q 497.39 250.79 491.37 241.77   Q 483.84 229.79 474.49 219.36   L 468.26 212.55   Q 468.13 212.40 468.26 212.27   L 468.47 212.06   A 0.48 0.48 0.0 0 1 469.14 212.05   L 475.51 218.05   Q 487.44 230.18 496.38 243.40   C 504.30 254.48 509.95 267.93 509.03 281.50   C 508.92 283.12 508.17 284.87 507.44 286.33   Q 507.06 287.10 507.91 287.01   C 535.64 284.26 563.27 283.76 591.23 285.87   Q 591.60 285.90 591.70 285.54   Q 592.73 281.92 592.90 278.00   Q 593.40 266.09 590.59 255.36   Q 586.70 238.27 579.29 223.36   Q 574.40 212.90 567.78 203.88   Q 567.18 203.05 568.01 203.65   Q 573.44 207.53 577.03 213.69   Q 582.07 222.32 586.66 231.67   Q 591.81 243.16 594.70 255.76   Q 598.19 269.43 596.03 283.81   L 595.39 285.44   A 0.75 0.74 14.7 0 0 595.99 286.46   Q 606.45 287.75 615.85 289.85   A 0.40 0.39 5.1 0 0 616.33 289.45   Q 615.67 269.74 610.63 250.63   Q 608.44 242.32 604.21 233.18   Q 594.89 207.25 575.88 188.42   C 567.46 180.08 557.69 173.59 546.62 170.74   Q 525.74 165.35 503.46 170.80   C 501.04 171.40 499.19 170.98 496.84 170.54   C 484.09 168.17 471.02 170.02 460.60 177.77   C 456.13 181.11 453.96 186.22 449.00 189.18   Q 443.28 192.59 437.85 195.91   Q 428.17 201.84 420.43 210.46   Q 417.43 213.81 413.64 220.72   C 412.89 222.09 411.38 223.52 410.08 224.37   C 400.94 230.34 390.61 240.50 390.56 251.95   Q 390.54 255.25 392.88 257.06   Z   M 153.87 400.45   Q 153.90 403.30 153.65 404.14   Q 151.25 412.34 148.07 419.43   C 146.86 422.15 146.59 425.27 147.58 428.08   Q 149.76 434.24 145.76 439.89   Q 141.79 445.49 137.60 451.18   C 134.34 455.60 132.63 461.01 130.32 465.93   Q 128.45 469.93 125.58 471.60   Q 111.94 479.57 104.17 492.43   C 103.36 493.78 101.64 495.20 100.21 495.85   Q 94.34 498.55 90.31 502.61   C 86.28 506.66 81.71 509.47 76.93 512.45   Q 69.26 517.23 65.42 524.28   A 1.99 1.97 -60.4 0 0 66.14 526.93   Q 68.32 528.23 70.57 528.61   Q 84.38 530.94 98.22 528.71   Q 130.34 524.07 162.85 507.83   Q 188.18 495.18 204.18 480.64   C 216.70 469.25 229.06 457.19 241.61 445.72   A 1.96 1.96 0.0 0 0 242.24 444.11   Q 241.68 437.19 241.07 430.86   C 240.92 429.37 241.24 427.93 241.42 426.46   Q 241.54 425.54 240.82 426.12   C 229.74 435.01 218.78 445.90 208.57 453.91   Q 196.74 463.18 180.81 471.31   Q 165.22 479.26 141.24 486.60   Q 131.21 488.99 120.94 489.75   Q 120.93 489.75 120.93 489.74   L 120.90 489.49   Q 120.87 489.24 121.13 489.20   Q 138.40 486.81 154.30 479.64   Q 192.81 464.77 222.61 436.10   Q 224.25 434.53 225.43 433.09   Q 226.33 431.99 225.06 432.63   Q 201.52 444.44 175.18 449.86   Q 163.04 451.98 150.00 450.91   A 0.50 0.49 -13.3 0 1 149.62 450.68   L 149.36 450.26   Q 149.05 449.76 149.63 449.75   C 159.30 449.54 167.41 449.11 176.32 446.67   Q 196.06 442.08 214.44 433.42   Q 228.99 426.57 241.93 419.72   C 243.12 419.09 244.06 418.07 243.94 416.64   A 0.52 0.52 0.0 0 0 243.33 416.17   Q 217.12 420.75 191.02 419.59   Q 172.46 418.27 154.84 412.36   Q 154.57 412.27 154.64 412.00   L 154.71 411.75   Q 154.73 411.69 154.79 411.70   Q 171.02 415.16 187.57 416.59   C 206.73 417.59 225.70 414.67 244.68 412.34   Q 246.12 412.17 246.94 411.36   A 0.59 0.59 0.0 0 0 246.75 410.39   Q 219.54 399.70 192.96 388.53   Q 188.52 386.66 184.23 384.46   L 168.54 375.83   L 154.90 367.52   Q 154.72 367.41 154.84 367.23   L 155.00 367.02   Q 155.08 366.91 155.21 366.98   L 164.46 371.85   L 188.01 383.33   Q 208.40 391.17 228.81 398.93   Q 237.49 402.23 248.40 407.60   C 249.45 408.12 250.42 408.16 251.12 407.18   A 0.50 0.49 -49.7 0 0 251.07 406.53   Q 238.84 394.51 226.61 382.40   Q 213.50 369.41 192.79 353.27   Q 176.75 340.02 159.96 328.93   Q 146.83 320.31 139.13 317.36   Q 133.60 315.23 128.19 312.91   Q 127.96 312.81 128.05 312.57   L 128.13 312.33   Q 128.30 311.86 128.78 312.00   Q 145.71 316.91 160.82 326.05   Q 179.05 337.27 195.51 351.08   Q 215.27 366.44 233.45 383.62   C 239.30 389.15 244.57 395.04 249.60 401.23   Q 251.24 403.25 252.00 405.48   A 0.48 0.48 0.0 0 0 252.74 405.71   L 263.60 397.66   L 269.87 392.89   A 0.65 0.64 62.9 0 0 270.09 392.19   Q 264.27 372.69 256.60 355.98   Q 241.99 324.15 215.94 300.51   C 188.29 275.42 151.01 259.43 113.68 263.27   C 107.69 263.89 91.59 267.99 100.66 277.56   Q 107.18 284.45 115.28 290.16   C 117.56 291.76 119.75 293.88 120.30 296.67   C 121.21 301.27 121.95 305.78 124.46 309.75   Q 126.96 313.71 130.56 317.64   C 132.73 320.03 134.42 322.86 134.88 326.12   Q 136.15 335.05 138.46 342.02   C 140.38 347.82 143.78 352.07 147.61 356.65   Q 150.86 360.53 150.28 365.85   Q 149.20 375.77 148.98 384.95   C 148.83 390.70 150.94 395.54 153.87 400.45   Z   M 246.49 419.86   Q 244.43 427.76 245.43 436.06   Q 247.03 449.35 249.98 463.40   Q 256.21 493.08 262.71 519.05   Q 278.98 584.10 312.71 641.64   Q 326.79 665.66 349.67 687.28   Q 353.44 690.85 357.60 693.82   A 0.86 0.86 0.0 0 0 358.58 693.84   Q 362.81 691.03 367.25 688.30   C 381.68 679.43 399.24 673.16 416.31 672.53   Q 426.15 672.16 432.72 679.12   Q 433.12 679.54 433.16 679.99   Q 433.25 680.87 432.48 680.90   Q 422.12 682.87 412.35 686.59   Q 395.59 692.96 380.25 699.11   C 369.17 703.56 359.56 705.87 348.20 708.25   Q 346.21 708.66 344.68 710.39   Q 337.96 717.95 332.39 725.19   A 0.47 0.47 0.0 0 0 332.82 725.94   Q 358.72 722.61 381.87 710.61   Q 391.82 705.46 423.60 688.07   Q 428.71 685.28 437.48 684.82   Q 442.66 685.23 440.62 687.02   Q 428.35 690.26 420.93 694.42   Q 397.54 707.52 382.74 714.76   Q 363.61 724.13 343.24 727.00   Q 337.07 727.87 331.54 727.87   A 1.65 1.63 -72.9 0 0 330.18 728.60   Q 326.38 734.32 322.34 740.25   C 320.23 743.35 318.99 748.58 324.60 749.06   C 328.23 749.37 332.11 748.88 335.66 747.96   C 358.44 742.01 376.34 733.22 397.13 721.00   C 412.30 712.09 426.17 699.51 442.45 692.11   Q 445.31 690.74 446.59 690.83   Q 452.60 691.29 447.00 693.54   Q 440.45 696.16 432.06 702.08   Q 422.00 709.16 411.38 716.76   A 0.47 0.47 0.0 0 0 411.42 717.56   Q 412.26 718.02 413.32 718.40   Q 438.24 727.35 464.89 733.12   C 497.27 740.14 529.26 744.46 561.71 744.79   Q 588.31 745.06 611.67 740.51   C 643.19 734.38 673.54 724.14 700.93 706.21   Q 731.02 687.05 754.35 659.65   C 765.57 646.48 774.12 632.14 782.05 616.52   Q 801.45 578.34 801.11 532.25   Q 801.10 531.48 800.48 531.92   C 787.36 541.15 771.36 546.02 755.93 539.37   Q 764.41 540.28 772.74 539.62   Q 795.45 536.35 808.36 517.64   C 822.28 497.48 817.82 468.61 797.96 454.29   C 785.91 445.61 771.03 442.92 756.73 447.28   Q 739.22 453.34 730.92 469.59   C 723.88 483.36 722.95 500.27 729.44 513.86   C 731.89 518.97 735.47 523.94 738.47 529.10   Q 723.57 515.79 721.83 497.00   C 720.17 479.08 727.58 462.08 741.77 451.01   C 753.39 441.96 767.74 439.95 782.27 442.92   Q 783.17 443.11 782.92 442.23   C 777.22 421.96 768.38 404.52 756.17 385.93   C 717.50 327.02 649.97 293.44 579.92 289.28   Q 541.98 287.03 503.64 291.37   C 487.19 293.23 470.69 295.07 454.72 297.43   Q 411.84 303.76 369.28 325.21   Q 359.60 330.09 351.30 335.48   C 330.75 348.82 310.35 363.99 291.04 380.44   Q 276.35 392.95 260.20 403.09   Q 257.15 405.00 254.30 407.44   Q 250.21 410.94 249.02 412.54   Q 247.36 414.76 246.49 419.86   Z   M 350.32 704.88   Q 349.04 706.03 350.68 705.51   C 368.38 699.92 385.52 692.81 402.98 685.71   Q 414.40 681.07 425.73 678.09   Q 426.90 677.79 425.83 677.23   Q 423.70 676.13 420.51 676.25   Q 380.61 677.71 350.32 704.88   Z   M 642.57 793.43   L 623.60 814.34   Q 623.45 814.51 623.28 814.36   L 623.06 814.18   Q 622.72 813.90 622.98 813.55   L 634.01 798.27   C 652.71 777.74 668.82 752.40 677.03 725.77   A 0.54 0.53 88.1 0 0 676.33 725.11   C 673.49 726.19 668.60 728.18 667.28 730.68   Q 655.18 753.59 637.40 772.90   Q 631.22 779.61 625.26 786.12   Q 618.48 793.73 610.62 799.70   Q 610.21 800.01 610.12 800.51   C 609.01 806.91 613.13 808.91 617.15 812.41   Q 618.43 813.53 619.06 814.88   Q 621.80 820.74 627.93 822.75   C 632.35 824.21 636.02 821.50 639.35 818.61   C 647.96 811.13 654.60 801.75 661.47 792.64   Q 672.45 777.84 679.10 764.34   Q 689.80 742.63 691.89 718.52   A 0.69 0.69 0.0 0 0 690.89 717.84   L 681.15 722.83   A 1.07 1.06 -9.5 0 0 680.58 723.62   Q 679.32 732.12 674.89 742.41   Q 667.33 759.95 657.25 774.49   Q 653.23 780.28 642.57 793.43   Z   M 625.32 756.89   Q 619.80 761.46 614.78 766.30   C 609.21 771.65 603.51 776.80 600.31 783.77   C 598.53 787.64 600.94 790.75 604.01 792.83   Q 607.61 795.27 609.66 798.33   A 0.35 0.35 0.0 0 0 610.21 798.36   L 621.34 785.50   Q 645.02 760.79 663.06 732.01   Q 663.72 730.96 662.52 731.26   C 657.39 732.54 651.34 734.12 647.11 737.60   Q 635.72 746.98 625.32 756.89   Z   M 443.35 775.43   Q 429.01 789.17 417.15 804.62   C 413.91 808.83 407.59 816.82 414.02 821.01   C 415.88 822.22 418.39 823.82 418.45 826.30   C 418.51 828.49 418.14 830.73 418.70 832.87   C 419.65 836.52 425.36 839.81 429.15 841.60   C 432.30 843.09 432.89 846.23 435.45 848.28   C 441.56 853.17 447.07 851.08 452.71 846.73   C 462.87 838.90 472.20 828.77 480.94 818.00   Q 497.02 801.11 510.10 781.12   C 517.34 770.07 522.09 759.94 525.72 747.64   A 0.66 0.66 0.0 0 0 525.15 746.79   L 513.76 745.72   A 1.01 1.01 0.0 0 0 512.87 746.11   C 512.09 747.14 511.61 748.28 510.76 749.36   Q 484.69 782.16 458.42 814.72   Q 445.89 828.41 433.75 840.47   Q 431.52 842.68 433.16 840.00   Q 435.17 836.70 438.40 832.62   L 449.36 819.51   C 470.23 795.11 488.34 769.38 509.17 745.88   Q 509.75 745.21 508.88 745.09   L 496.72 743.35   Q 496.04 743.25 495.53 743.71   C 475.03 762.10 457.77 778.15 440.81 796.63   L 425.71 814.53   Q 427.29 810.00 429.13 807.38   Q 435.21 798.76 443.32 789.17   Q 457.23 773.87 462.62 768.87   Q 475.52 756.86 490.45 743.24   A 0.32 0.31 41.0 0 0 490.41 742.74   Q 487.51 740.85 484.63 742.66   Q 462.01 756.87 443.35 775.43   Z" />
<path fill="#585563" d="   M 550.21 211.34   C 557.33 223.48 562.72 235.04 566.34 248.94   Q 567.67 254.05 569.17 262.33   C 569.99 269.76 570.30 275.22 569.31 282.26   Q 569.25 282.72 568.88 282.97   Q 568.52 283.23 568.12 283.06   Q 567.60 282.84 567.57 282.28   Q 565.90 252.31 553.93 225.05   L 546.76 212.16   Q 536.12 192.07 518.46 177.81   Q 518.17 177.58 518.39 177.27   L 518.54 177.06   Q 518.61 176.96 518.72 177.02   C 532.17 185.49 542.40 197.44 550.21 211.34   Z" />
<path fill="#585563" d="   M 516.52 215.76   L 527.08 231.63   C 536.37 245.68 546.29 266.35 544.24 282.72   A 0.62 0.62 0.0 0 1 543.10 282.96   Q 542.97 282.75 542.83 282.55   Q 542.63 282.27 542.58 281.95   Q 540.15 264.23 532.29 248.29   Q 524.57 232.10 514.40 218.14   Q 504.19 202.99 490.21 191.29   Q 490.03 191.14 490.16 190.94   L 490.35 190.65   Q 490.42 190.53 490.54 190.61   C 500.81 197.22 509.24 205.79 516.52 215.76   Z" />
<path fill="#585563" d="   M 262.69 397.25   C 261.80 397.85 261.07 397.81 260.26 397.03   Q 256.87 393.74 255.50 391.74   C 245.53 377.20 235.28 362.43 223.81 349.04   Q 203.85 325.53 177.85 309.67   Q 162.06 300.01 144.63 294.83   C 137.45 292.69 129.82 291.66 122.33 289.98   Q 122.20 289.95 122.21 289.82   L 122.24 289.33   Q 122.26 289.11 122.48 289.13   Q 155.25 291.71 181.35 307.20   Q 215.01 327.19 237.79 359.97   Q 247.56 374.03 258.19 389.01   Q 260.83 392.72 262.81 396.42   Q 262.95 396.69 262.85 396.98   Q 262.78 397.15 262.69 397.25   Z" />
<path fill="#585563" d="   M 400.61 387.29   C 397.34 385.39 394.22 382.06 397.73 378.71   Q 401.28 375.33 407.20 375.61   Q 407.27 375.62 407.29 375.68   L 407.40 375.92   Q 407.57 376.28 407.17 376.31   C 403.93 376.56 400.33 377.53 398.33 380.14   A 2.82 2.81 -50.8 0 0 398.72 383.97   Q 401.23 386.15 404.39 387.35   Q 404.83 387.52 404.90 387.98   Q 404.92 388.15 404.81 388.27   A 0.51 0.51 0.0 0 1 404.45 388.42   Q 399.95 388.46 399.05 392.30   A 0.34 0.34 0.0 0 1 398.48 392.47   L 397.60 391.61   A 0.67 0.67 0.0 0 1 397.46 390.86   C 397.90 389.85 399.77 388.97 400.67 388.32   Q 401.43 387.77 400.61 387.29   Z" />
<path fill="#585563" d="   M 349.01 436.18   C 346.94 438.34 348.60 441.01 351.00 441.75   Q 353.90 442.64 357.00 443.29   Q 357.52 443.40 357.61 443.92   A 0.56 0.55 79.6 0 1 357.18 444.55   Q 354.54 445.13 351.91 444.85   C 347.16 444.36 343.50 440.06 346.59 435.46   C 349.01 431.84 354.78 428.91 359.23 429.16   Q 360.13 429.21 359.37 429.70   Q 358.30 430.38 357.08 430.77   C 354.11 431.72 351.17 433.93 349.01 436.18   Z" />
<path fill="#585563" d="   M 531.11 493.68   C 537.08 518.06 529.02 542.87 509.56 558.33   Q 500.02 565.90 486.59 568.57   C 462.80 573.30 439.81 564.21 424.02 545.81   C 400.85 518.82 406.02 477.26 435.10 456.72   C 443.45 450.82 455.06 446.96 465.23 446.15   C 496.51 443.66 523.60 463.03 531.11 493.68   Z   M 448.21 454.19   Q 426.01 463.96 417.31 486.00   Q 408.90 507.30 417.42 527.67   C 427.37 551.43 451.07 566.92 477.17 565.59   Q 500.04 564.43 514.42 547.75   Q 531.92 527.69 528.52 502.24   C 525.63 480.50 511.82 460.70 490.54 453.51   Q 468.88 446.19 448.21 454.19   Z" />
<path fill="#585563" d="   M 358.55 450.60   C 355.09 452.96 350.53 455.05 351.85 460.27   Q 351.97 460.78 351.46 460.91   Q 350.65 461.12 349.99 460.22   A 1.46 1.44 18.1 0 1 349.79 459.83   Q 349.28 458.35 349.95 456.57   Q 352.12 450.77 358.49 449.66   A 0.33 0.32 -6.4 0 1 358.87 449.96   Q 358.88 450.13 358.80 450.29   Q 358.71 450.48 358.55 450.60   Z" />
<path fill="#585563" d="   M 793.43 470.07   C 807.76 486.98 798.90 514.56 774.97 515.12   C 763.25 515.39 754.13 508.28 749.61 497.60   C 742.96 481.91 754.26 461.94 771.27 460.05   C 780.21 459.05 787.71 463.32 793.43 470.07   Z   M 773.92 463.06   C 767.01 466.03 769.55 475.54 774.31 479.25   C 783.32 486.25 792.59 472.20 785.49 465.09   Q 780.59 460.18 773.92 463.06   Z" />
<path fill="#585563" d="   M 344.54 481.65   Q 345.69 480.86 344.29 480.84   C 340.04 480.78 332.25 480.52 332.25 474.27   C 332.25 469.80 337.41 466.22 341.27 465.07   Q 341.80 464.91 342.08 465.39   Q 342.22 465.64 341.98 465.96   Q 341.77 466.22 341.48 466.40   Q 337.45 468.84 334.92 472.08   A 2.76 2.76 0.0 0 0 335.25 475.83   C 337.90 478.23 342.71 479.05 346.19 479.55   Q 348.24 479.84 346.49 480.95   C 345.03 481.88 344.36 483.67 342.89 484.67   Q 339.90 486.69 342.12 483.85   Q 343.01 482.71 344.54 481.65   Z" />
<path fill="#585563" d="   M 511.66 506.72   A 32.68 32.68 0.0 0 1 478.98 539.40   A 32.68 32.68 0.0 0 1 446.30 506.72   A 32.68 32.68 0.0 0 1 478.98 474.04   A 32.68 32.68 0.0 0 1 511.66 506.72   Z   M 498.40 482.75   C 494.17 479.00 488.67 476.50 484.54 482.35   Q 481.21 487.07 483.20 491.76   C 485.92 498.19 500.29 499.99 501.85 491.91   Q 502.86 486.71 498.40 482.75   Z" />
<path fill="#585563" d="   M 648.51 577.10   C 664.88 577.52 679.81 570.78 688.56 556.76   A 2.00 1.99 41.5 0 1 691.81 556.57   Q 692.71 557.69 692.81 559.25   Q 693.85 575.90 687.91 590.88   C 679.99 610.89 661.59 623.63 639.94 617.75   C 631.17 615.36 623.41 609.32 617.08 602.74   C 604.64 589.81 597.53 574.31 596.13 556.81   Q 596.08 556.26 596.40 555.81   C 597.48 554.27 598.92 554.61 600.11 555.86   Q 619.66 576.37 648.51 577.10   Z   M 688.07 565.82   C 668.74 588.29 632.60 584.72 610.27 570.44   C 607.48 568.65 604.97 566.34 602.40 564.28   Q 601.61 563.65 601.81 564.64   C 605.33 581.94 615.22 596.70 629.37 607.32   Q 636.23 612.47 644.36 613.79   C 667.03 617.48 681.87 599.22 686.69 578.93   Q 688.22 572.51 688.74 566.10   Q 688.84 564.93 688.07 565.82   Z" />
<path fill="#585563" d="   M 319.83 602.01   C 316.37 602.62 311.20 604.74 311.86 609.21   C 312.83 615.78 318.15 618.06 323.74 620.08   Q 325.60 620.76 323.70 621.30   Q 321.20 622.02 318.00 620.77   C 311.68 618.30 305.98 610.05 311.38 603.87   Q 314.38 600.43 319.74 601.14   Q 320.13 601.19 320.13 601.58   Q 320.13 601.74 320.04 601.87   Q 319.96 601.99 319.83 602.01   Z" />
<path fill="#585563" d="   M 331.16 641.13   A 0.86 0.86 0.0 0 0 330.52 639.92   Q 325.98 639.15 322.00 637.44   A 3.86 3.70 82.3 0 1 320.44 636.20   Q 319.88 635.45 320.13 634.55   Q 320.23 634.20 320.56 634.37   Q 325.13 636.87 329.91 637.97   C 335.57 639.27 331.61 645.35 331.40 648.60   Q 331.12 652.73 334.97 655.07   C 337.25 656.46 339.78 656.40 342.27 657.06   Q 344.30 657.59 342.36 658.41   C 337.55 660.46 331.96 658.26 329.76 653.53   C 327.76 649.22 329.25 645.19 331.16 641.13   Z" />
</g><g id="Group-d5e5e6"><path fill="#d5e5e6" d="   M 604.21 233.18   Q 601.14 229.70 598.93 223.58   Q 598.14 221.39 595.82 218.90   A 0.76 0.75 56.9 0 0 594.98 218.72   L 594.65 218.86   Q 594.19 219.06 593.88 218.67   L 592.69 217.17   Q 592.36 216.75 591.83 216.70   L 584.29 215.99   Q 584.07 215.97 584.07 216.19   L 584.07 216.53   Q 584.06 216.83 584.36 216.83   Q 590.01 216.88 592.22 219.59   Q 595.79 223.96 597.22 229.66   A 1.25 1.24 61.3 0 1 596.87 230.87   Q 595.69 231.98 594.10 231.61   A 1.76 1.75 -8.9 0 1 593.01 230.82   Q 590.98 227.49 588.93 224.47   Q 587.16 221.86 587.86 224.94   Q 588.61 228.24 586.66 231.67   Q 582.07 222.32 577.03 213.69   Q 573.44 207.53 568.01 203.65   Q 567.18 203.05 567.78 203.88   Q 574.40 212.90 579.29 223.36   Q 577.66 223.31 576.59 222.09   Q 576.26 221.70 575.75 221.60   C 570.74 220.59 566.43 220.75 563.25 216.00   A 0.78 0.78 0.0 0 1 563.28 215.07   L 565.98 211.69   A 0.57 0.57 0.0 0 0 565.67 210.78   Q 561.52 209.76 556.80 210.50   Q 553.59 211.00 550.21 211.34   C 542.40 197.44 532.17 185.49 518.72 177.02   Q 518.61 176.96 518.54 177.06   L 518.39 177.27   Q 518.17 177.58 518.46 177.81   Q 536.12 192.07 546.76 212.16   Q 539.41 210.89 534.39 211.40   Q 532.89 211.55 531.35 213.14   A 1.18 1.18 0.0 0 1 530.49 213.51   C 528.53 213.53 527.12 212.34 525.20 212.37   Q 520.48 212.44 516.52 215.76   C 509.24 205.79 500.81 197.22 490.54 190.61   Q 490.42 190.53 490.35 190.65   L 490.16 190.94   Q 490.03 191.14 490.21 191.29   Q 504.19 202.99 514.40 218.14   Q 512.38 218.09 510.27 217.24   Q 507.81 216.24 506.33 216.08   Q 490.93 214.41 475.51 218.05   L 469.14 212.05   A 0.48 0.48 0.0 0 0 468.47 212.06   L 468.26 212.27   Q 468.13 212.40 468.26 212.55   L 474.49 219.36   Q 465.95 220.09 457.89 223.55   Q 448.34 214.17 435.55 209.85   Q 435.28 209.75 435.18 210.03   L 435.09 210.27   Q 434.99 210.55 435.26 210.65   Q 446.50 214.99 454.87 223.49   L 439.73 224.55   Q 438.84 224.61 437.86 224.95   Q 429.74 227.78 423.13 233.87   Q 418.81 232.80 412.00 232.12   Q 411.76 232.10 411.60 232.26   Q 411.27 232.58 411.71 232.71   L 426.11 237.05   Q 421.02 236.78 417.17 236.82   Q 414.54 236.85 412.87 237.99   Q 408.71 240.85 405.97 244.71   Q 402.82 249.16 398.54 252.02   Q 396.49 253.39 396.39 255.31   Q 394.98 255.74 393.44 256.90   Q 393.60 256.67 392.88 257.06   Q 390.54 255.25 390.56 251.95   C 390.61 240.50 400.94 230.34 410.08 224.37   C 411.38 223.52 412.89 222.09 413.64 220.72   Q 417.43 213.81 420.43 210.46   Q 428.17 201.84 437.85 195.91   Q 443.28 192.59 449.00 189.18   C 453.96 186.22 456.13 181.11 460.60 177.77   C 471.02 170.02 484.09 168.17 496.84 170.54   C 499.19 170.98 501.04 171.40 503.46 170.80   Q 525.74 165.35 546.62 170.74   C 557.69 173.59 567.46 180.08 575.88 188.42   Q 594.89 207.25 604.21 233.18   Z   M 469.46 184.27   C 476.32 180.49 483.54 177.25 491.05 174.75   A 0.71 0.70 -30.9 0 0 491.34 173.60   Q 490.85 173.07 490.09 173.17   C 484.13 173.91 479.05 175.30 473.63 177.87   C 469.99 179.59 464.24 181.49 461.93 184.73   A 1.09 1.09 0.0 0 0 462.97 186.44   C 465.19 186.11 467.50 185.35 469.46 184.27   Z   M 565.73 197.51   C 567.61 198.85 569.10 200.13 570.19 202.23   Q 570.75 203.31 571.96 203.28   Q 572.28 203.27 572.58 203.16   Q 574.22 202.56 573.65 200.91   Q 572.05 196.30 567.63 195.36   Q 566.24 195.07 565.49 196.34   A 0.88 0.88 0.0 0 0 565.73 197.51   Z" />
<path fill="#d5e5e6" d="   M 263.60 397.66   Q 262.84 397.45 262.69 397.25   Q 262.78 397.15 262.85 396.98   Q 262.95 396.69 262.81 396.42   Q 260.83 392.72 258.19 389.01   Q 247.56 374.03 237.79 359.97   Q 215.01 327.19 181.35 307.20   Q 155.25 291.71 122.48 289.13   Q 122.26 289.11 122.24 289.33   L 122.21 289.82   Q 122.20 289.95 122.33 289.98   C 129.82 291.66 137.45 292.69 144.63 294.83   Q 162.06 300.01 177.85 309.67   C 176.20 310.90 174.64 310.22 172.95 309.64   C 170.37 308.75 166.90 311.34 165.29 313.28   Q 164.85 313.81 165.03 314.46   L 166.11 318.40   Q 166.26 318.95 166.83 318.97   Q 168.08 319.01 169.13 319.60   Q 169.60 319.87 169.27 320.30   Q 168.05 321.93 165.71 321.36   Q 164.41 321.04 163.63 322.13   L 160.82 326.05   Q 145.71 316.91 128.78 312.00   Q 128.30 311.86 128.13 312.33   L 128.05 312.57   Q 127.96 312.81 128.19 312.91   Q 133.60 315.23 139.13 317.36   Q 146.83 320.31 159.96 328.93   Q 158.50 330.48 154.90 330.45   Q 154.37 330.44 154.01 330.84   L 150.96 334.25   Q 150.54 334.71 150.67 335.33   Q 151.43 338.92 154.99 338.38   A 0.87 0.86 71.5 0 1 155.88 338.83   Q 156.27 339.57 155.64 340.12   Q 153.71 341.77 151.03 342.42   Q 150.51 342.54 150.45 343.07   C 150.20 345.50 154.15 345.42 153.90 348.81   Q 153.60 352.87 154.32 357.15   C 154.72 359.52 156.73 360.59 157.85 362.53   C 158.70 363.99 159.11 365.41 160.51 366.49   Q 162.23 367.81 163.99 369.17   Q 164.40 369.49 164.42 370.01   L 164.46 371.85   L 155.21 366.98   Q 155.08 366.91 155.00 367.02   L 154.84 367.23   Q 154.72 367.41 154.90 367.52   L 168.54 375.83   L 166.63 378.16   Q 166.30 378.55 166.22 379.05   C 165.48 383.75 164.55 387.65 159.30 388.65   A 1.98 1.98 0.0 0 0 157.72 390.23   Q 156.71 395.59 153.87 400.45   C 150.94 395.54 148.83 390.70 148.98 384.95   Q 149.20 375.77 150.28 365.85   Q 150.86 360.53 147.61 356.65   C 143.78 352.07 140.38 347.82 138.46 342.02   Q 136.15 335.05 134.88 326.12   C 134.42 322.86 132.73 320.03 130.56 317.64   Q 126.96 313.71 124.46 309.75   C 121.95 305.78 121.21 301.27 120.30 296.67   C 119.75 293.88 117.56 291.76 115.28 290.16   Q 107.18 284.45 100.66 277.56   C 91.59 267.99 107.69 263.89 113.68 263.27   C 151.01 259.43 188.29 275.42 215.94 300.51   Q 241.99 324.15 256.60 355.98   Q 264.27 372.69 270.09 392.19   A 0.65 0.64 62.9 0 1 269.87 392.89   L 263.60 397.66   Z" />
<path fill="#d5e5e6" d="   M 738.47 529.10   Q 746.25 535.75 755.93 539.37   C 771.36 546.02 787.36 541.15 800.48 531.92   Q 801.10 531.48 801.11 532.25   Q 801.45 578.34 782.05 616.52   C 774.12 632.14 765.57 646.48 754.35 659.65   Q 731.02 687.05 700.93 706.21   Q 691.21 703.29 680.82 707.73   Q 672.35 711.34 664.77 714.55   Q 661.91 715.76 656.70 716.42   Q 656.11 716.50 656.04 715.91   L 655.83 714.21   A 0.91 0.91 0.0 0 0 654.62 713.47   Q 650.85 714.84 648.38 717.62   A 1.69 1.64 -75.0 0 1 647.53 718.13   Q 644.40 718.88 641.46 718.90   Q 634.26 718.95 627.71 718.72   Q 624.85 718.62 622.19 716.64   A 0.77 0.76 -45.3 0 0 621.27 716.65   Q 619.91 717.67 618.44 718.68   C 612.50 722.76 607.25 721.27 600.96 719.09   Q 597.93 718.04 601.13 717.89   Q 602.42 717.83 603.78 717.95   Q 603.99 717.97 604.15 717.82   Q 604.26 717.71 604.26 717.57   Q 604.27 717.10 603.83 716.91   C 599.86 715.22 595.94 716.22 592.15 717.83   A 1.45 1.45 0.0 0 1 590.30 717.16   Q 589.68 715.99 588.61 715.50   Q 588.08 715.26 587.52 715.43   L 584.26 716.40   A 1.21 1.20 -19.8 0 1 582.80 715.72   L 581.62 712.95   Q 581.41 712.46 580.88 712.41   Q 576.73 712.05 572.81 714.32   Q 572.21 714.67 571.69 714.20   Q 567.18 710.10 560.29 707.13   C 555.03 704.86 547.53 705.63 541.88 705.94   A 1.42 1.41 76.2 0 1 540.50 705.10   L 538.79 701.29   A 1.62 1.60 84.8 0 0 537.72 700.39   C 531.10 698.71 523.47 697.36 516.41 697.49   Q 512.37 697.57 509.15 696.67   Q 495.80 692.93 481.79 688.99   Q 478.89 688.17 477.14 685.63   Q 473.34 680.10 468.65 676.43   C 467.29 675.36 466.11 673.67 465.39 672.08   Q 464.73 670.62 463.21 669.54   Q 460.00 667.26 457.30 664.21   A 2.80 2.80 0.0 0 0 454.32 663.40   L 450.33 664.71   A 1.76 1.73 49.5 0 1 448.97 664.59   C 441.77 660.70 436.57 655.22 430.29 650.29   C 426.98 647.69 424.58 644.25 423.18 640.31   Q 421.42 635.32 415.87 633.39   Q 409.46 631.15 405.61 628.41   C 402.76 626.38 399.55 624.98 396.58 623.22   C 391.41 620.17 386.23 618.69 380.65 617.30   Q 379.49 617.01 379.33 615.84   L 378.50 609.81   A 1.57 1.55 3.8 0 0 377.35 608.52   Q 372.10 607.16 366.16 606.59   A 1.34 1.32 -14.3 0 1 365.19 606.02   Q 362.02 601.49 358.42 597.97   Q 351.52 591.24 352.39 582.95   A 0.59 0.58 -85.4 0 0 351.84 582.30   L 343.78 581.85   A 1.24 1.23 -75.4 0 0 342.61 582.54   L 339.85 588.09   A 0.91 0.91 0.0 0 1 338.42 588.35   C 334.39 584.60 331.64 579.72 327.57 576.24   C 324.75 573.84 322.89 570.65 320.01 568.46   Q 317.34 566.44 314.19 564.69   A 1.16 1.15 -75.5 0 1 313.60 563.68   C 313.57 559.10 313.87 554.31 313.15 549.80   A 1.84 1.84 0.0 0 0 312.12 548.44   L 297.65 541.68   A 1.72 1.70 89.4 0 1 296.80 540.84   Q 294.21 535.34 292.67 529.71   Q 292.54 529.24 292.99 529.09   L 293.34 528.97   Q 293.71 528.85 293.82 529.22   L 294.60 531.94   A 0.68 0.68 0.0 0 0 295.73 532.23   C 297.28 530.69 297.10 528.66 295.98 526.96   C 293.34 522.93 290.81 519.23 289.05 514.75   Q 288.92 514.43 289.24 514.29   L 289.60 514.13   A 0.32 0.32 0.0 0 1 290.00 514.25   Q 290.95 515.72 291.10 517.26   Q 291.17 517.98 291.86 517.77   Q 293.06 517.40 293.72 516.62   Q 294.23 516.02 293.63 515.50   Q 288.99 511.54 287.60 508.79   C 284.26 502.16 280.19 496.48 278.24 489.32   C 277.30 485.85 275.35 483.30 273.42 480.41   C 270.23 475.65 268.92 470.43 269.47 464.64   Q 269.88 460.30 268.93 456.16   Q 267.25 448.79 266.81 441.71   A 1.55 1.54 5.8 0 0 265.67 440.32   L 259.59 438.69   A 1.34 1.33 -85.1 0 1 258.60 437.51   Q 258.08 430.74 258.55 424.09   A 1.58 1.57 -74.7 0 0 257.70 422.58   Q 252.69 420.02 246.49 419.86   Q 247.36 414.76 249.02 412.54   Q 250.21 410.94 254.30 407.44   Q 257.15 405.00 260.20 403.09   Q 276.35 392.95 291.04 380.44   C 310.35 363.99 330.75 348.82 351.30 335.48   Q 359.60 330.09 369.28 325.21   Q 411.84 303.76 454.72 297.43   C 470.69 295.07 487.19 293.23 503.64 291.37   Q 541.98 287.03 579.92 289.28   C 649.97 293.44 717.50 327.02 756.17 385.93   C 768.38 404.52 777.22 421.96 782.92 442.23   Q 783.17 443.11 782.27 442.92   C 767.74 439.95 753.39 441.96 741.77 451.01   C 727.58 462.08 720.17 479.08 721.83 497.00   Q 723.57 515.79 738.47 529.10   Z   M 413.24 322.66   Q 399.48 326.31 387.95 334.63   C 386.90 335.39 386.00 336.46 385.28 337.53   A 1.25 1.25 0.0 0 0 386.12 339.45   Q 387.20 339.63 388.17 339.24   Q 399.61 334.68 410.38 328.08   C 416.01 324.62 422.00 322.93 428.27 321.36   Q 437.04 319.17 446.77 317.18   Q 448.15 316.90 449.17 316.01   Q 450.80 314.59 448.65 314.48   Q 436.29 313.85 423.82 318.60   C 420.25 319.96 416.87 321.69 413.24 322.66   Z   M 384.28 330.06   Q 387.19 327.98 392.33 326.00   Q 402.37 322.13 410.50 319.70   A 0.69 0.69 0.0 0 0 410.73 318.50   C 407.76 316.11 401.84 317.27 398.53 318.30   Q 381.82 323.51 370.16 336.40   Q 369.25 337.40 369.44 338.47   A 0.95 0.95 0.0 0 0 370.88 339.11   Q 377.21 335.11 384.28 330.06   Z   M 565.56 324.79   A 0.86 0.86 0.0 0 0 565.90 323.46   Q 562.94 319.78 557.26 320.07   C 553.60 320.25 547.20 321.58 549.47 326.84   C 551.35 331.20 557.59 327.69 560.49 326.70   Q 563.08 325.82 565.56 324.79   Z   M 543.6460 323.3838   A 6.16 3.30 -15.5 0 0 536.8281 321.8500   A 6.16 3.30 -15.5 0 0 531.7740 326.6762   A 6.16 3.30 -15.5 0 0 538.5919 328.2100   A 6.16 3.30 -15.5 0 0 543.6460 323.3838   Z   M 587.7947 323.5357   A 4.50 2.39 -14.6 0 0 582.8376 322.3572   A 4.50 2.39 -14.6 0 0 579.0853 325.8043   A 4.50 2.39 -14.6 0 0 584.0424 326.9828   A 4.50 2.39 -14.6 0 0 587.7947 323.5357   Z   M 580.14 356.19   C 584.27 353.58 588.73 351.52 593.50 350.42   Q 595.33 350.00 593.61 349.25   C 587.90 346.72 581.89 346.14 576.97 350.10   Q 574.49 352.11 575.91 354.97   Q 576.08 355.31 576.35 355.62   Q 578.01 357.54 580.14 356.19   Z   M 528.7624 350.9767   A 4.78 1.59 -36.5 0 0 523.9742 352.5419   A 4.78 1.59 -36.5 0 0 521.0776 356.6633   A 4.78 1.59 -36.5 0 0 525.8658 355.0981   A 4.78 1.59 -36.5 0 0 528.7624 350.9767   Z   M 546.87 360.13   C 549.77 363.73 560.85 358.27 564.07 356.54   A 1.94 1.93 53.6 0 0 564.53 353.47   C 560.26 349.17 552.19 351.75 547.56 354.57   C 545.47 355.84 545.41 358.30 546.87 360.13   Z   M 628.3777 365.6828   A 8.94 3.52 1.3 0 0 619.5199 361.9609   A 8.94 3.52 1.3 0 0 610.5023 365.2772   A 8.94 3.52 1.3 0 0 619.3601 368.9991   A 8.94 3.52 1.3 0 0 628.3777 365.6828   Z   M 648.36 375.51   C 652.69 380.70 659.41 378.57 665.14 377.72   A 0.61 0.60 -28.3 0 0 665.46 376.67   C 660.20 371.96 653.86 366.53 646.52 369.20   Q 642.81 370.56 644.57 373.85   A 1.81 1.80 71.8 0 0 646.42 374.79   Q 647.61 374.61 648.36 375.51   Z   M 574.13 376.18   Q 573.33 376.65 572.73 377.39   A 0.68 0.68 0.0 0 0 573.29 378.50   C 576.25 378.36 580.91 376.79 581.97 373.59   A 1.94 1.94 0.0 0 0 580.02 371.05   Q 576.42 371.25 573.03 372.36   Q 571.68 372.80 572.02 374.19   Q 572.14 374.66 572.61 374.69   Q 573.29 374.74 573.96 374.92   Q 575.51 375.35 574.13 376.18   Z   M 400.67 388.32   C 399.77 388.97 397.90 389.85 397.46 390.86   A 0.67 0.67 0.0 0 0 397.60 391.61   L 398.48 392.47   A 0.34 0.34 0.0 0 0 399.05 392.30   Q 399.95 388.46 404.45 388.42   A 0.51 0.51 0.0 0 0 404.81 388.27   Q 404.92 388.15 404.90 387.98   Q 404.83 387.52 404.39 387.35   Q 401.23 386.15 398.72 383.97   A 2.82 2.81 -50.8 0 1 398.33 380.14   C 400.33 377.53 403.93 376.56 407.17 376.31   Q 407.57 376.28 407.40 375.92   L 407.29 375.68   Q 407.27 375.62 407.20 375.61   Q 401.28 375.33 397.73 378.71   C 394.22 382.06 397.34 385.39 400.61 387.29   Q 401.43 387.77 400.67 388.32   Z   M 680.1816 391.4503   A 6.87 3.14 43.4 0 0 677.3475 384.4486   A 6.87 3.14 43.4 0 0 670.1984 382.0097   A 6.87 3.14 43.4 0 0 673.0325 389.0114   A 6.87 3.14 43.4 0 0 680.1816 391.4503   Z   M 351.00 441.75   C 348.60 441.01 346.94 438.34 349.01 436.18   C 351.17 433.93 354.11 431.72 357.08 430.77   Q 358.30 430.38 359.37 429.70   Q 360.13 429.21 359.23 429.16   C 354.78 428.91 349.01 431.84 346.59 435.46   C 343.50 440.06 347.16 444.36 351.91 444.85   Q 354.54 445.13 357.18 444.55   A 0.56 0.55 79.6 0 0 357.61 443.92   Q 357.52 443.40 357.00 443.29   Q 353.90 442.64 351.00 441.75   Z   M 531.11 493.68   C 523.60 463.03 496.51 443.66 465.23 446.15   C 455.06 446.96 443.45 450.82 435.10 456.72   C 406.02 477.26 400.85 518.82 424.02 545.81   C 439.81 564.21 462.80 573.30 486.59 568.57   Q 500.02 565.90 509.56 558.33   C 529.02 542.87 537.08 518.06 531.11 493.68   Z   M 351.85 460.27   C 350.53 455.05 355.09 452.96 358.55 450.60   Q 358.71 450.48 358.80 450.29   Q 358.88 450.13 358.87 449.96   A 0.33 0.32 -6.4 0 0 358.49 449.66   Q 352.12 450.77 349.95 456.57   Q 349.28 458.35 349.79 459.83   A 1.46 1.44 18.1 0 0 349.99 460.22   Q 350.65 461.12 351.46 460.91   Q 351.97 460.78 351.85 460.27   Z   M 344.54 481.65   Q 343.01 482.71 342.12 483.85   Q 339.90 486.69 342.89 484.67   C 344.36 483.67 345.03 481.88 346.49 480.95   Q 348.24 479.84 346.19 479.55   C 342.71 479.05 337.90 478.23 335.25 475.83   A 2.76 2.76 0.0 0 1 334.92 472.08   Q 337.45 468.84 341.48 466.40   Q 341.77 466.22 341.98 465.96   Q 342.22 465.64 342.08 465.39   Q 341.80 464.91 341.27 465.07   C 337.41 466.22 332.25 469.80 332.25 474.27   C 332.25 480.52 340.04 480.78 344.29 480.84   Q 345.69 480.86 344.54 481.65   Z   M 672.6133 476.8079   A 5.40 2.06 79.4 0 0 673.6448 471.1211   A 5.40 2.06 79.4 0 0 670.6267 466.1921   A 5.40 2.06 79.4 0 0 669.5952 471.8789   A 5.40 2.06 79.4 0 0 672.6133 476.8079   Z   M 625.7607 496.2008   A 6.10 3.75 61.5 0 0 626.1456 489.0507   A 6.10 3.75 61.5 0 0 619.9393 485.4792   A 6.10 3.75 61.5 0 0 619.5544 492.6293   A 6.10 3.75 61.5 0 0 625.7607 496.2008   Z   M 665.7788 530.4565   A 4.04 2.37 77.0 0 0 667.1793 525.9869   A 4.04 2.37 77.0 0 0 663.9612 522.5835   A 4.04 2.37 77.0 0 0 662.5607 527.0531   A 4.04 2.37 77.0 0 0 665.7788 530.4565   Z   M 688.56 556.76   C 679.81 570.78 664.88 577.52 648.51 577.10   Q 619.66 576.37 600.11 555.86   C 598.92 554.61 597.48 554.27 596.40 555.81   Q 596.08 556.26 596.13 556.81   C 597.53 574.31 604.64 589.81 617.08 602.74   C 623.41 609.32 631.17 615.36 639.94 617.75   C 661.59 623.63 679.99 610.89 687.91 590.88   Q 693.85 575.90 692.81 559.25   Q 692.71 557.69 691.81 556.57   A 2.00 1.99 41.5 0 0 688.56 556.76   Z" />
<path fill="#d5e5e6" d="   M 840.30 419.28   C 842.72 422.85 844.11 426.10 840.37 429.62   C 836.23 433.53 826.55 433.09 824.53 426.87   C 821.86 418.62 833.78 411.55 840.49 415.67   A 1.47 1.46 31.5 0 1 840.98 417.69   Q 840.78 418.02 840.47 418.26   A 0.77 0.75 -36.1 0 0 840.30 419.28   Z   M 840.03 417.03   A 0.39 0.39 0.0 0 0 839.97 416.44   C 835.19 413.17 824.92 417.72 825.29 423.88   Q 825.40 425.73 825.59 427.48   Q 825.64 428.02 826.06 428.38   Q 831.39 433.01 837.71 430.66   C 840.32 429.69 841.53 426.97 841.64 424.45   C 841.76 421.84 838.05 419.14 840.03 417.03   Z" />
<path fill="#d5e5e6" d="   M 625.32 756.89   Q 625.16 759.52 623.67 762.08   A 2.08 2.08 0.0 0 0 623.38 763.14   Q 623.36 770.01 620.08 775.50   A 1.67 1.66 -34.5 0 0 619.86 776.66   L 621.34 785.50   L 610.21 798.36   A 0.35 0.35 0.0 0 1 609.66 798.33   Q 607.61 795.27 604.01 792.83   C 600.94 790.75 598.53 787.64 600.31 783.77   C 603.51 776.80 609.21 771.65 614.78 766.30   Q 619.80 761.46 625.32 756.89   Z" />
<path fill="#d5e5e6" d="   M 443.35 775.43   Q 443.62 776.73 442.05 778.69   Q 441.74 779.08 441.67 779.58   Q 440.91 784.68 443.32 789.17   Q 435.21 798.76 429.13 807.38   Q 427.29 810.00 425.71 814.53   Q 425.73 824.37 434.53 830.47   Q 435.43 831.10 438.40 832.62   Q 435.17 836.70 433.16 840.00   Q 431.52 842.68 433.75 840.47   Q 445.89 828.41 458.42 814.72   Q 461.80 820.41 466.81 820.93   Q 471.74 821.45 480.94 818.00   C 472.20 828.77 462.87 838.90 452.71 846.73   C 447.07 851.08 441.56 853.17 435.45 848.28   C 432.89 846.23 432.30 843.09 429.15 841.60   C 425.36 839.81 419.65 836.52 418.70 832.87   C 418.14 830.73 418.51 828.49 418.45 826.30   C 418.39 823.82 415.88 822.22 414.02 821.01   C 407.59 816.82 413.91 808.83 417.15 804.62   Q 429.01 789.17 443.35 775.43   Z" />
<path fill="#d5e5e6" d="   M 625.26 786.12   Q 625.62 787.54 625.79 788.92   Q 625.99 790.54 626.64 791.56   Q 629.37 795.83 634.01 798.27   L 622.98 813.55   Q 622.72 813.90 623.06 814.18   L 623.28 814.36   Q 623.45 814.51 623.60 814.34   L 642.57 793.43   Q 643.28 793.95 643.56 795.27   C 644.07 797.66 646.63 800.53 648.15 802.42   Q 648.51 802.88 649.07 802.71   Q 651.18 802.09 653.01 800.25   C 655.52 797.74 654.61 796.31 653.29 793.63   A 0.79 0.79 0.0 0 1 654.01 792.49   L 661.47 792.64   C 654.60 801.75 647.96 811.13 639.35 818.61   C 636.02 821.50 632.35 824.21 627.93 822.75   Q 621.80 820.74 619.06 814.88   Q 618.43 813.53 617.15 812.41   C 613.13 808.91 609.01 806.91 610.12 800.51   Q 610.21 800.01 610.62 799.70   Q 618.48 793.73 625.26 786.12   Z" />
</g><g id="Group-ffffff"><path fill="#ffffff" d="   M 491.05 174.75   C 483.54 177.25 476.32 180.49 469.46 184.27   C 467.50 185.35 465.19 186.11 462.97 186.44   A 1.09 1.09 0.0 0 1 461.93 184.73   C 464.24 181.49 469.99 179.59 473.63 177.87   C 479.05 175.30 484.13 173.91 490.09 173.17   Q 490.85 173.07 491.34 173.60   A 0.71 0.70 -30.9 0 1 491.05 174.75   Z" />
<path fill="#ffffff" d="   M 570.19 202.23   C 569.10 200.13 567.61 198.85 565.73 197.51   A 0.88 0.88 0.0 0 1 565.49 196.34   Q 566.24 195.07 567.63 195.36   Q 572.05 196.30 573.65 200.91   Q 574.22 202.56 572.58 203.16   Q 572.28 203.27 571.96 203.28   Q 570.75 203.31 570.19 202.23   Z" />
<path fill="#ffffff" d="   M 439.73 224.55   Q 441.39 226.53 439.37 227.87   Q 432.66 232.36 427.19 235.32   L 423.13 233.87   Q 429.74 227.78 437.86 224.95   Q 438.84 224.61 439.73 224.55   Z" />
<path fill="#ffffff" d="   M 413.24 322.66   C 416.87 321.69 420.25 319.96 423.82 318.60   Q 436.29 313.85 448.65 314.48   Q 450.80 314.59 449.17 316.01   Q 448.15 316.90 446.77 317.18   Q 437.04 319.17 428.27 321.36   C 422.00 322.93 416.01 324.62 410.38 328.08   Q 399.61 334.68 388.17 339.24   Q 387.20 339.63 386.12 339.45   A 1.25 1.25 0.0 0 1 385.28 337.53   C 386.00 336.46 386.90 335.39 387.95 334.63   Q 399.48 326.31 413.24 322.66   Z" />
<path fill="#ffffff" d="   M 384.28 330.06   Q 377.21 335.11 370.88 339.11   A 0.95 0.95 0.0 0 1 369.44 338.47   Q 369.25 337.40 370.16 336.40   Q 381.82 323.51 398.53 318.30   C 401.84 317.27 407.76 316.11 410.73 318.50   A 0.69 0.69 0.0 0 1 410.50 319.70   Q 402.37 322.13 392.33 326.00   Q 387.19 327.98 384.28 330.06   Z" />
<path fill="#ffffff" d="   M 565.56 324.79   Q 563.08 325.82 560.49 326.70   C 557.59 327.69 551.35 331.20 549.47 326.84   C 547.20 321.58 553.60 320.25 557.26 320.07   Q 562.94 319.78 565.90 323.46   A 0.86 0.86 0.0 0 1 565.56 324.79   Z" />
<ellipse fill="#ffffff" cx="0.00" cy="0.00" transform="translate(537.71,325.03) rotate(-15.5)" rx="6.16" ry="3.30" />
<ellipse fill="#ffffff" cx="0.00" cy="0.00" transform="translate(583.44,324.67) rotate(-14.6)" rx="4.50" ry="2.39" />
<path fill="#ffffff" d="   M 593.50 350.42   C 588.73 351.52 584.27 353.58 580.14 356.19   Q 578.01 357.54 576.35 355.62   Q 576.08 355.31 575.91 354.97   Q 574.49 352.11 576.97 350.10   C 581.89 346.14 587.90 346.72 593.61 349.25   Q 595.33 350.00 593.50 350.42   Z" />
<ellipse fill="#ffffff" cx="0.00" cy="0.00" transform="translate(524.92,353.82) rotate(-36.5)" rx="4.78" ry="1.59" />
<path fill="#ffffff" d="   M 564.07 356.54   C 560.85 358.27 549.77 363.73 546.87 360.13   C 545.41 358.30 545.47 355.84 547.56 354.57   C 552.19 351.75 560.26 349.17 564.53 353.47   A 1.94 1.93 53.6 0 1 564.07 356.54   Z" />
<ellipse fill="#ffffff" cx="0.00" cy="0.00" transform="translate(619.44,365.48) rotate(1.3)" rx="8.94" ry="3.52" />
<path fill="#ffffff" d="   M 648.36 375.51   Q 647.61 374.61 646.42 374.79   A 1.81 1.80 71.8 0 1 644.57 373.85   Q 642.81 370.56 646.52 369.20   C 653.86 366.53 660.20 371.96 665.46 376.67   A 0.61 0.60 -28.3 0 1 665.14 377.72   C 659.41 378.57 652.69 380.70 648.36 375.51   Z" />
<path fill="#ffffff" d="   M 574.13 376.18   Q 575.51 375.35 573.96 374.92   Q 573.29 374.74 572.61 374.69   Q 572.14 374.66 572.02 374.19   Q 571.68 372.80 573.03 372.36   Q 576.42 371.25 580.02 371.05   A 1.94 1.94 0.0 0 1 581.97 373.59   C 580.91 376.79 576.25 378.36 573.29 378.50   A 0.68 0.68 0.0 0 1 572.73 377.39   Q 573.33 376.65 574.13 376.18   Z" />
<ellipse fill="#ffffff" cx="0.00" cy="0.00" transform="translate(675.19,386.73) rotate(43.4)" rx="6.87" ry="3.14" />
<path fill="#ffffff" d="   M 809.59 387.49   Q 811.62 386.94 813.09 388.30   Q 818.30 393.11 818.41 399.92   C 818.58 409.98 806.92 411.53 802.66 403.16   Q 798.61 395.18 801.30 387.49   C 802.53 383.97 808.17 382.35 808.79 386.97   A 0.64 0.63 -11.6 0 0 809.59 387.49   Z   M 809.57 407.73   Q 814.48 408.54 816.58 404.39   C 819.09 399.46 816.70 393.13 813.19 389.48   Q 811.70 387.94 809.51 388.42   A 1.07 1.06 -19.4 0 1 808.31 387.85   L 807.35 385.91   Q 807.11 385.43 806.59 385.29   C 804.89 384.84 802.91 385.49 802.34 387.25   Q 802.11 387.96 801.67 388.55   Q 801.36 388.98 801.37 389.51   Q 801.40 392.96 801.35 396.74   Q 801.33 398.20 801.98 399.64   C 803.68 403.44 804.55 405.69 808.75 407.78   Q 808.93 407.87 809.11 407.79   Q 809.33 407.69 809.57 407.73   Z" />
<path fill="#ffffff" d="   M 772.74 539.62   Q 771.89 539.16 772.29 538.00   Q 772.67 536.93 773.20 536.25   A 0.93 0.93 0.0 0 0 772.92 534.87   Q 766.55 531.25 761.26 526.03   C 760.54 525.32 759.45 524.68 758.50 524.38   Q 746.35 520.61 741.88 508.43   C 740.89 505.74 740.82 502.87 739.60 500.23   Q 737.30 495.27 738.27 490.28   C 741.20 475.23 747.09 462.22 757.80 451.12   A 1.30 1.30 0.0 0 0 758.00 449.57   L 756.73 447.28   C 771.03 442.92 785.91 445.61 797.96 454.29   C 817.82 468.61 822.28 497.48 808.36 517.64   Q 795.45 536.35 772.74 539.62   Z   M 793.43 470.07   C 787.71 463.32 780.21 459.05 771.27 460.05   C 754.26 461.94 742.96 481.91 749.61 497.60   C 754.13 508.28 763.25 515.39 774.97 515.12   C 798.90 514.56 807.76 486.98 793.43 470.07   Z" />
<path fill="#ffffff" d="   M 514.42 547.75   Q 512.98 545.87 515.33 542.54   Q 516.42 540.99 516.81 539.64   Q 517.24 538.13 517.12 536.63   A 1.30 1.30 0.0 0 0 515.52 535.48   C 513.50 535.98 511.70 536.95 510.15 538.32   C 499.03 548.12 484.68 553.51 469.86 552.09   Q 448.03 549.99 433.87 531.55   C 426.80 522.35 425.18 513.02 424.35 501.67   C 424.16 499.16 424.85 497.70 425.75 495.54   Q 432.41 479.60 443.52 468.53   Q 446.76 465.31 448.00 462.53   Q 449.99 458.08 448.21 454.19   Q 468.88 446.19 490.54 453.51   C 511.82 460.70 525.63 480.50 528.52 502.24   Q 531.92 527.69 514.42 547.75   Z   M 511.66 506.72   A 32.68 32.68 0.0 0 0 478.98 474.04   A 32.68 32.68 0.0 0 0 446.30 506.72   A 32.68 32.68 0.0 0 0 478.98 539.40   A 32.68 32.68 0.0 0 0 511.66 506.72   Z" />
<path fill="#ffffff" d="   M 773.92 463.06   Q 780.59 460.18 785.49 465.09   C 792.59 472.20 783.32 486.25 774.31 479.25   C 769.55 475.54 767.01 466.03 773.92 463.06   Z" />
<ellipse fill="#ffffff" cx="0.00" cy="0.00" transform="translate(671.62,471.50) rotate(79.4)" rx="5.40" ry="2.06" />
<path fill="#ffffff" d="   M 498.40 482.75   Q 502.86 486.71 501.85 491.91   C 500.29 499.99 485.92 498.19 483.20 491.76   Q 481.21 487.07 484.54 482.35   C 488.67 476.50 494.17 479.00 498.40 482.75   Z" />
<ellipse fill="#ffffff" cx="0.00" cy="0.00" transform="translate(622.85,490.84) rotate(61.5)" rx="6.10" ry="3.75" />
<ellipse fill="#ffffff" cx="0.00" cy="0.00" transform="translate(664.87,526.52) rotate(77.0)" rx="4.04" ry="2.37" />
<path fill="#ffffff" d="   M 770.46 700.93   C 779.36 706.89 775.00 715.68 767.39 719.36   Q 761.32 722.29 753.85 721.18   C 745.62 719.96 741.86 711.14 747.95 704.86   C 753.33 699.32 762.95 694.19 770.57 696.85   Q 771.91 697.32 771.80 698.68   Q 771.75 699.25 771.26 699.54   L 770.49 699.99   Q 769.72 700.43 770.46 700.93   Z   M 750.83 719.55   C 751.78 719.89 752.16 720.31 753.27 720.45   Q 760.52 721.32 765.57 719.36   Q 770.74 717.36 773.19 713.14   Q 777.11 706.38 770.65 702.19   Q 769.00 701.12 769.46 699.67   Q 769.64 699.09 770.22 698.90   Q 770.72 698.73 770.85 698.26   Q 771.01 697.65 770.39 697.55   Q 765.49 696.78 761.93 697.56   Q 754.06 699.30 748.19 705.87   Q 744.01 710.55 747.03 716.22   Q 748.34 718.67 750.83 719.55   Z" />
<path fill="#ffffff" d="   M 308.78 712.46   Q 308.53 712.20 308.62 711.94   Q 308.69 711.73 308.89 711.62   Q 309.80 711.11 310.67 710.59   A 0.70 0.70 0.0 0 0 310.72 709.44   C 309.37 708.41 306.43 707.09 304.67 707.81   C 303.41 708.34 302.14 708.23 300.85 708.79   C 297.32 710.32 292.82 714.29 293.46 718.54   Q 293.78 720.64 294.76 721.99   Q 298.51 727.19 306.38 724.40   Q 302.65 727.15 298.25 725.47   Q 295.21 724.31 293.74 721.75   C 288.26 712.20 304.97 702.62 311.61 709.07   A 1.51 1.50 -33.7 0 1 311.11 711.55   L 308.78 712.46   Z" />
<ellipse fill="#ffffff" cx="0.00" cy="0.00" transform="translate(305.05,718.23) rotate(92.7)" rx="2.84" ry="1.77" />
<path fill="#ffffff" d="   M 279.51 746.92   Q 285.31 738.05 280.68 729.12   A 1.48 1.48 0.0 0 0 278.04 729.14   Q 277.59 730.04 276.33 730.71   L 277.38 728.47   A 1.88 1.88 0.0 0 1 280.30 727.85   Q 281.68 729.04 282.54 731.20   Q 286.12 740.24 279.51 746.92   Z" />
</g><g id="Group-c3ced6"><path fill="#c3ced6" d="   M 579.29 223.36   Q 586.70 238.27 590.59 255.36   Q 585.78 254.95 580.82 253.18   Q 579.57 252.73 577.79 253.35   Q 577.31 253.52 577.07 253.96   C 575.01 257.75 573.91 260.65 569.17 262.33   Q 567.67 254.05 566.34 248.94   C 562.72 235.04 557.33 223.48 550.21 211.34   Q 553.59 211.00 556.80 210.50   Q 561.52 209.76 565.67 210.78   A 0.57 0.57 0.0 0 1 565.98 211.69   L 563.28 215.07   A 0.78 0.78 0.0 0 0 563.25 216.00   C 566.43 220.75 570.74 220.59 575.75 221.60   Q 576.26 221.70 576.59 222.09   Q 577.66 223.31 579.29 223.36   Z" />
<path fill="#c3ced6" d="   M 546.76 212.16   L 553.93 225.05   Q 550.05 227.12 545.84 227.79   Q 538.97 228.88 538.93 228.89   Q 533.00 230.26 527.08 231.63   L 516.52 215.76   Q 520.48 212.44 525.20 212.37   C 527.12 212.34 528.53 213.53 530.49 213.51   A 1.18 1.18 0.0 0 0 531.35 213.14   Q 532.89 211.55 534.39 211.40   Q 539.41 210.89 546.76 212.16   Z" />
<path fill="#c3ced6" d="   M 514.40 218.14   Q 524.57 232.10 532.29 248.29   C 530.20 247.49 528.77 245.99 526.71 245.41   C 523.76 244.57 521.41 243.92 519.00 241.70   Q 518.61 241.34 518.59 240.81   L 518.44 236.83   A 0.61 0.61 0.0 0 0 517.44 236.38   C 513.87 239.30 510.11 239.00 505.93 240.71   Q 501.41 242.56 496.38 243.40   Q 487.44 230.18 475.51 218.05   Q 490.93 214.41 506.33 216.08   Q 507.81 216.24 510.27 217.24   Q 512.38 218.09 514.40 218.14   Z" />
<path fill="#c3ced6" d="   M 604.21 233.18   Q 608.44 242.32 610.63 250.63   Q 615.67 269.74 616.33 289.45   A 0.40 0.39 5.1 0 1 615.85 289.85   Q 606.45 287.75 595.99 286.46   A 0.75 0.74 14.7 0 1 595.39 285.44   L 596.03 283.81   L 612.91 285.49   A 0.95 0.95 0.0 0 0 613.92 284.82   C 614.29 283.56 614.49 282.16 614.23 280.86   C 612.88 274.18 612.51 267.47 610.36 260.78   C 608.89 256.22 598.40 255.33 594.70 255.76   Q 591.81 243.16 586.66 231.67   Q 588.61 228.24 587.86 224.94   Q 587.16 221.86 588.93 224.47   Q 590.98 227.49 593.01 230.82   A 1.76 1.75 -8.9 0 0 594.10 231.61   Q 595.69 231.98 596.87 230.87   A 1.25 1.24 61.3 0 0 597.22 229.66   Q 595.79 223.96 592.22 219.59   Q 590.01 216.88 584.36 216.83   Q 584.06 216.83 584.07 216.53   L 584.07 216.19   Q 584.07 215.97 584.29 215.99   L 591.83 216.70   Q 592.36 216.75 592.69 217.17   L 593.88 218.67   Q 594.19 219.06 594.65 218.86   L 594.98 218.72   A 0.76 0.75 56.9 0 1 595.82 218.90   Q 598.14 221.39 598.93 223.58   Q 601.14 229.70 604.21 233.18   Z" />
<path fill="#c3ced6" d="   M 474.49 219.36   Q 483.84 229.79 491.37 241.77   Q 483.50 242.41 477.14 245.95   Q 468.63 234.15 457.89 223.55   Q 465.95 220.09 474.49 219.36   Z" />
<path fill="#c3ced6" d="   M 454.87 223.49   Q 463.67 233.12 471.33 243.72   Q 469.65 246.02 468.28 246.54   C 463.27 248.47 460.35 251.29 456.29 254.11   Q 443.39 242.12 427.19 235.32   Q 432.66 232.36 439.37 227.87   Q 441.39 226.53 439.73 224.55   L 454.87 223.49   Z" />
<path fill="#c3ced6" d="   M 426.11 237.05   Q 443.11 245.18 457.67 260.33   Q 452.66 260.89 442.19 261.23   Q 437.49 261.39 433.39 265.13   Q 421.15 257.49 406.89 255.10   C 403.43 254.52 399.96 255.40 396.39 255.31   Q 396.49 253.39 398.54 252.02   Q 402.82 249.16 405.97 244.71   Q 408.71 240.85 412.87 237.99   Q 414.54 236.85 417.17 236.82   Q 421.02 236.78 426.11 237.05   Z" />
<path fill="#c3ced6" d="   M 446.86 279.07   L 433.94 280.55   A 0.88 0.88 0.0 0 1 433.02 279.35   Q 433.95 276.99 435.51 275.21   Q 435.90 274.76 435.86 274.16   C 435.56 269.86 431.54 269.99 428.33 270.54   Q 421.83 271.64 415.16 273.88   Q 409.40 270.75 403.26 269.47   Q 401.54 269.10 399.43 270.19   Q 398.62 270.61 399.53 270.61   C 404.77 270.59 411.69 274.34 416.15 277.33   Q 415.53 280.66 411.60 283.34   A 0.64 0.63 -14.5 0 1 410.61 282.76   Q 410.79 280.61 410.42 278.47   C 410.17 277.04 408.90 274.99 407.14 275.57   C 401.48 277.42 395.88 279.71 393.17 284.99   A 1.56 1.56 0.0 0 0 393.63 286.96   L 394.44 287.56   Q 395.38 288.25 394.25 288.57   C 393.25 288.85 392.55 289.28 392.09 290.25   C 390.80 292.99 389.39 295.42 389.13 298.47   Q 389.00 300.11 388.38 301.41   C 384.48 291.22 383.07 280.68 386.35 270.61   Q 388.16 265.02 393.12 257.61   Q 393.27 257.38 393.16 257.13   Q 393.08 256.96 392.88 257.06   Q 393.60 256.67 393.44 256.90   C 395.04 256.63 396.31 255.91 397.92 255.95   Q 411.63 256.30 424.17 263.09   Q 436.53 269.77 446.86 279.07   Z" />
<path fill="#c3ced6" d="   M 177.85 309.67   Q 203.85 325.53 223.81 349.04   Q 222.03 352.26 219.76 354.65   Q 218.78 355.67 219.26 354.34   Q 219.87 352.67 220.64 351.17   A 1.04 1.01 -46.4 0 0 220.63 350.21   Q 218.99 347.22 215.67 346.66   C 210.47 345.79 203.20 345.81 198.75 348.89   Q 197.14 350.00 195.51 351.08   Q 179.05 337.27 160.82 326.05   L 163.63 322.13   Q 164.41 321.04 165.71 321.36   Q 168.05 321.93 169.27 320.30   Q 169.60 319.87 169.13 319.60   Q 168.08 319.01 166.83 318.97   Q 166.26 318.95 166.11 318.40   L 165.03 314.46   Q 164.85 313.81 165.29 313.28   C 166.90 311.34 170.37 308.75 172.95 309.64   C 174.64 310.22 176.20 310.90 177.85 309.67   Z" />
<path fill="#c3ced6" d="   M 192.79 353.27   Q 188.96 356.63 187.08 361.19   A 1.46 1.45 -74.9 0 1 185.54 362.08   C 183.59 361.82 180.28 361.79 180.60 364.84   A 1.85 1.85 0.0 0 0 181.67 366.33   Q 188.77 369.60 193.52 374.40   A 1.49 1.49 0.0 0 1 193.28 376.70   Q 189.46 379.19 188.01 383.33   L 164.46 371.85   L 164.42 370.01   Q 164.40 369.49 163.99 369.17   Q 162.23 367.81 160.51 366.49   C 159.11 365.41 158.70 363.99 157.85 362.53   C 156.73 360.59 154.72 359.52 154.32 357.15   Q 153.60 352.87 153.90 348.81   C 154.15 345.42 150.20 345.50 150.45 343.07   Q 150.51 342.54 151.03 342.42   Q 153.71 341.77 155.64 340.12   Q 156.27 339.57 155.88 338.83   A 0.87 0.86 71.5 0 0 154.99 338.38   Q 151.43 338.92 150.67 335.33   Q 150.54 334.71 150.96 334.25   L 154.01 330.84   Q 154.37 330.44 154.90 330.45   Q 158.50 330.48 159.96 328.93   Q 176.75 340.02 192.79 353.27   Z" />
<path fill="#c3ced6" d="   M 184.23 384.46   C 182.20 389.15 178.93 393.62 173.98 394.31   A 0.99 0.99 0.0 0 0 173.13 395.28   C 173.12 398.27 177.25 399.70 179.55 400.80   Q 180.15 401.09 180.33 401.73   Q 180.53 402.44 180.05 403.03   A 0.82 0.82 0.0 0 0 180.44 404.33   Q 186.34 406.18 190.61 410.54   Q 190.98 410.91 190.71 411.36   L 187.57 416.59   Q 171.02 415.16 154.79 411.70   Q 154.73 411.69 154.71 411.75   L 154.64 412.00   Q 154.57 412.27 154.84 412.36   Q 172.46 418.27 191.02 419.59   Q 189.94 428.57 187.70 437.39   C 186.89 440.57 181.11 442.01 178.02 442.96   Q 177.45 443.14 177.13 443.63   Q 176.30 444.91 176.32 446.67   C 167.41 449.11 159.30 449.54 149.63 449.75   Q 149.05 449.76 149.36 450.26   L 149.62 450.68   A 0.50 0.49 -13.3 0 0 150.00 450.91   Q 163.04 451.98 175.18 449.86   Q 174.70 451.88 173.02 453.02   C 169.91 455.14 166.76 456.32 164.66 459.74   C 162.63 463.04 162.52 466.62 158.56 468.57   Q 152.17 471.73 148.67 478.55   A 0.74 0.74 0.0 0 0 149.56 479.59   Q 152.02 478.79 154.30 479.64   Q 138.40 486.81 121.13 489.20   Q 120.87 489.24 120.90 489.49   L 120.93 489.74   Q 120.93 489.75 120.94 489.75   Q 131.21 488.99 141.24 486.60   C 140.19 488.83 138.12 489.61 137.76 492.18   Q 137.67 492.82 137.15 493.23   C 135.50 494.51 133.42 494.14 131.44 494.39   Q 130.95 494.45 130.65 494.84   Q 126.49 500.14 121.49 505.09   Q 118.63 507.92 115.10 508.25   C 109.01 508.81 104.92 512.99 100.34 517.13   C 96.77 520.36 95.98 524.39 98.22 528.71   Q 84.38 530.94 70.57 528.61   Q 68.32 528.23 66.14 526.93   A 1.99 1.97 -60.4 0 1 65.42 524.28   Q 69.26 517.23 76.93 512.45   C 81.71 509.47 86.28 506.66 90.31 502.61   Q 94.34 498.55 100.21 495.85   C 101.64 495.20 103.36 493.78 104.17 492.43   Q 111.94 479.57 125.58 471.60   Q 128.45 469.93 130.32 465.93   C 132.63 461.01 134.34 455.60 137.60 451.18   Q 141.79 445.49 145.76 439.89   Q 149.76 434.24 147.58 428.08   C 146.59 425.27 146.86 422.15 148.07 419.43   Q 151.25 412.34 153.65 404.14   Q 153.90 403.30 153.87 400.45   Q 156.71 395.59 157.72 390.23   A 1.98 1.98 0.0 0 1 159.30 388.65   C 164.55 387.65 165.48 383.75 166.22 379.05   Q 166.30 378.55 166.63 378.16   L 168.54 375.83   L 184.23 384.46   Z" />
<path fill="#c3ced6" d="   M 440.81 796.63   Q 440.94 798.25 439.91 800.02   Q 438.25 802.87 438.20 802.98   Q 436.43 807.11 436.73 810.51   C 437.03 813.96 445.16 817.60 449.36 819.51   L 438.40 832.62   Q 435.43 831.10 434.53 830.47   Q 425.73 824.37 425.71 814.53   L 440.81 796.63   Z" />
</g><g id="Group-d2d1d9"><path fill="#d2d1d9" d="   M 809.11 407.79   Q 808.93 407.87 808.75 407.78   C 804.55 405.69 803.68 403.44 801.98 399.64   Q 801.33 398.20 801.35 396.74   Q 801.40 392.96 801.37 389.51   Q 801.36 388.98 801.67 388.55   Q 802.11 387.96 802.34 387.25   C 802.91 385.49 804.89 384.84 806.59 385.29   Q 807.11 385.43 807.35 385.91   L 808.31 387.85   A 1.07 1.06 -19.4 0 0 809.51 388.42   Q 811.70 387.94 813.19 389.48   C 816.70 393.13 819.09 399.46 816.58 404.39   Q 814.48 408.54 809.57 407.73   Q 809.33 407.69 809.11 407.79   Z" />
<path fill="#d2d1d9" d="   M 840.03 417.03   C 838.05 419.14 841.76 421.84 841.64 424.45   C 841.53 426.97 840.32 429.69 837.71 430.66   Q 831.39 433.01 826.06 428.38   Q 825.64 428.02 825.59 427.48   Q 825.40 425.73 825.29 423.88   C 824.92 417.72 835.19 413.17 839.97 416.44   A 0.39 0.39 0.0 0 1 840.03 417.03   Z" />
<path fill="#d2d1d9" d="   M 246.49 419.86   Q 252.69 420.02 257.70 422.58   A 1.58 1.57 -74.7 0 1 258.55 424.09   Q 258.08 430.74 258.60 437.51   A 1.34 1.33 -85.1 0 0 259.59 438.69   L 265.67 440.32   A 1.55 1.54 5.8 0 1 266.81 441.71   Q 267.25 448.79 268.93 456.16   Q 269.88 460.30 269.47 464.64   C 268.92 470.43 270.23 475.65 273.42 480.41   C 275.35 483.30 277.30 485.85 278.24 489.32   C 280.19 496.48 284.26 502.16 287.60 508.79   Q 288.99 511.54 293.63 515.50   Q 294.23 516.02 293.72 516.62   Q 293.06 517.40 291.86 517.77   Q 291.17 517.98 291.10 517.26   Q 290.95 515.72 290.00 514.25   A 0.32 0.32 0.0 0 0 289.60 514.13   L 289.24 514.29   Q 288.92 514.43 289.05 514.75   C 290.81 519.23 293.34 522.93 295.98 526.96   C 297.10 528.66 297.28 530.69 295.73 532.23   A 0.68 0.68 0.0 0 1 294.60 531.94   L 293.82 529.22   Q 293.71 528.85 293.34 528.97   L 292.99 529.09   Q 292.54 529.24 292.67 529.71   Q 294.21 535.34 296.80 540.84   A 1.72 1.70 89.4 0 0 297.65 541.68   L 312.12 548.44   A 1.84 1.84 0.0 0 1 313.15 549.80   C 313.87 554.31 313.57 559.10 313.60 563.68   A 1.16 1.15 -75.5 0 0 314.19 564.69   Q 317.34 566.44 320.01 568.46   C 322.89 570.65 324.75 573.84 327.57 576.24   C 331.64 579.72 334.39 584.60 338.42 588.35   A 0.91 0.91 0.0 0 0 339.85 588.09   L 342.61 582.54   A 1.24 1.23 -75.4 0 1 343.78 581.85   L 351.84 582.30   A 0.59 0.58 -85.4 0 1 352.39 582.95   Q 351.52 591.24 358.42 597.97   Q 362.02 601.49 365.19 606.02   A 1.34 1.32 -14.3 0 0 366.16 606.59   Q 372.10 607.16 377.35 608.52   A 1.57 1.55 3.8 0 1 378.50 609.81   L 379.33 615.84   Q 379.49 617.01 380.65 617.30   C 386.23 618.69 391.41 620.17 396.58 623.22   C 399.55 624.98 402.76 626.38 405.61 628.41   Q 409.46 631.15 415.87 633.39   Q 421.42 635.32 423.18 640.31   C 424.58 644.25 426.98 647.69 430.29 650.29   C 436.57 655.22 441.77 660.70 448.97 664.59   A 1.76 1.73 49.5 0 0 450.33 664.71   L 454.32 663.40   A 2.80 2.80 0.0 0 1 457.30 664.21   Q 460.00 667.26 463.21 669.54   Q 464.73 670.62 465.39 672.08   C 466.11 673.67 467.29 675.36 468.65 676.43   Q 473.34 680.10 477.14 685.63   Q 478.89 688.17 481.79 688.99   Q 495.80 692.93 509.15 696.67   Q 512.37 697.57 516.41 697.49   C 523.47 697.36 531.10 698.71 537.72 700.39   A 1.62 1.60 84.8 0 1 538.79 701.29   L 540.50 705.10   A 1.42 1.41 76.2 0 0 541.88 705.94   C 547.53 705.63 555.03 704.86 560.29 707.13   Q 567.18 710.10 571.69 714.20   Q 572.21 714.67 572.81 714.32   Q 576.73 712.05 580.88 712.41   Q 581.41 712.46 581.62 712.95   L 582.80 715.72   A 1.21 1.20 -19.8 0 0 584.26 716.40   L 587.52 715.43   Q 588.08 715.26 588.61 715.50   Q 589.68 715.99 590.30 717.16   A 1.45 1.45 0.0 0 0 592.15 717.83   C 595.94 716.22 599.86 715.22 603.83 716.91   Q 604.27 717.10 604.26 717.57   Q 604.26 717.71 604.15 717.82   Q 603.99 717.97 603.78 717.95   Q 602.42 717.83 601.13 717.89   Q 597.93 718.04 600.96 719.09   C 607.25 721.27 612.50 722.76 618.44 718.68   Q 619.91 717.67 621.27 716.65   A 0.77 0.76 -45.3 0 1 622.19 716.64   Q 624.85 718.62 627.71 718.72   Q 634.26 718.95 641.46 718.90   Q 644.40 718.88 647.53 718.13   A 1.69 1.64 -75.0 0 0 648.38 717.62   Q 650.85 714.84 654.62 713.47   A 0.91 0.91 0.0 0 1 655.83 714.21   L 656.04 715.91   Q 656.11 716.50 656.70 716.42   Q 661.91 715.76 664.77 714.55   Q 672.35 711.34 680.82 707.73   Q 691.21 703.29 700.93 706.21   C 673.54 724.14 643.19 734.38 611.67 740.51   Q 588.31 745.06 561.71 744.79   C 529.26 744.46 497.27 740.14 464.89 733.12   Q 438.24 727.35 413.32 718.40   Q 412.26 718.02 411.42 717.56   A 0.47 0.47 0.0 0 1 411.38 716.76   Q 422.00 709.16 432.06 702.08   Q 440.45 696.16 447.00 693.54   Q 452.60 691.29 446.59 690.83   Q 445.31 690.74 442.45 692.11   Q 440.46 689.68 440.62 687.02   Q 442.66 685.23 437.48 684.82   Q 437.09 684.69 436.83 684.60   Q 436.50 684.49 436.82 684.35   Q 436.93 684.29 436.96 684.11   Q 436.99 683.92 436.82 683.82   Q 435.09 682.87 433.13 683.03   A 0.74 0.73 -10.6 0 1 432.36 682.51   Q 432.16 681.87 432.48 680.90   Q 433.25 680.87 433.16 679.99   Q 433.12 679.54 432.72 679.12   Q 426.15 672.16 416.31 672.53   C 399.24 673.16 381.68 679.43 367.25 688.30   Q 362.81 691.03 358.58 693.84   A 0.86 0.86 0.0 0 1 357.60 693.82   Q 353.44 690.85 349.67 687.28   Q 326.79 665.66 312.71 641.64   Q 278.98 584.10 262.71 519.05   Q 256.21 493.08 249.98 463.40   Q 247.03 449.35 245.43 436.06   Q 244.43 427.76 246.49 419.86   Z   M 311.86 609.21   C 311.20 604.74 316.37 602.62 319.83 602.01   Q 319.96 601.99 320.04 601.87   Q 320.13 601.74 320.13 601.58   Q 320.13 601.19 319.74 601.14   Q 314.38 600.43 311.38 603.87   C 305.98 610.05 311.68 618.30 318.00 620.77   Q 321.20 622.02 323.70 621.30   Q 325.60 620.76 323.74 620.08   C 318.15 618.06 312.83 615.78 311.86 609.21   Z   M 331.16 641.13   C 329.25 645.19 327.76 649.22 329.76 653.53   C 331.96 658.26 337.55 660.46 342.36 658.41   Q 344.30 657.59 342.27 657.06   C 339.78 656.40 337.25 656.46 334.97 655.07   Q 331.12 652.73 331.40 648.60   C 331.61 645.35 335.57 639.27 329.91 637.97   Q 325.13 636.87 320.56 634.37   Q 320.23 634.20 320.13 634.55   Q 319.88 635.45 320.44 636.20   A 3.86 3.70 82.3 0 0 322.00 637.44   Q 325.98 639.15 330.52 639.92   A 0.86 0.86 0.0 0 1 331.16 641.13   Z" />
<path fill="#d2d1d9" d="   M 865.26 615.44   Q 864.28 615.78 865.33 616.68   Q 868.20 619.13 868.59 621.92   Q 869.00 629.46 864.38 633.11   Q 854.77 640.69 844.27 634.01   Q 843.47 633.50 842.18 631.45   Q 841.26 629.98 841.34 628.40   C 841.46 626.12 840.99 623.79 842.05 621.66   Q 846.23 613.19 855.46 610.77   C 857.98 610.11 858.81 611.12 861.01 611.20   Q 861.57 611.22 861.94 611.65   L 865.26 615.44   Z   M 860.23 618.11   Q 860.43 617.90 859.98 617.77   A 0.41 0.41 0.0 0 0 859.52 617.93   Q 856.87 621.83 859.54 626.13   A 2.37 2.37 0.0 0 0 860.99 627.18   L 861.65 627.34   Q 862.61 627.58 862.25 626.65   Q 860.63 622.40 860.03 618.72   Q 859.98 618.37 860.23 618.11   Z" />
<path fill="#d2d1d9" d="   M 821.46 653.50   Q 824.19 657.40 823.18 661.40   Q 820.41 672.20 812.29 675.57   Q 809.95 676.53 805.82 676.34   Q 805.25 676.31 804.78 675.99   C 803.88 675.38 803.09 675.78 802.08 675.40   Q 797.57 673.70 794.97 670.17   A 1.87 1.86 -29.6 0 1 795.75 667.35   L 797.86 666.47   A 0.95 0.95 0.0 0 0 797.97 664.78   Q 795.14 663.12 794.63 660.23   C 794.18 657.66 794.01 653.95 795.59 651.70   Q 799.71 645.80 806.51 645.40   Q 815.55 644.88 821.46 653.50   Z" />
<path fill="#d2d1d9" d="   M 264.93 679.98   Q 265.95 681.67 265.33 683.80   C 263.64 689.56 259.79 691.49 255.06 694.34   Q 252.66 695.79 253.92 698.22   C 254.49 699.32 255.94 699.65 256.94 700.30   Q 258.12 701.06 257.79 702.44   C 257.04 705.54 252.92 706.71 250.37 706.44   Q 242.77 705.64 239.40 699.56   C 237.54 696.21 237.70 691.45 239.29 687.92   C 243.31 678.92 252.46 674.42 262.13 677.44   C 263.34 677.82 264.31 678.94 264.93 679.98   Z" />
<path fill="#d2d1d9" d="   M 750.83 719.55   Q 748.34 718.67 747.03 716.22   Q 744.01 710.55 748.19 705.87   Q 754.06 699.30 761.93 697.56   Q 765.49 696.78 770.39 697.55   Q 771.01 697.65 770.85 698.26   Q 770.72 698.73 770.22 698.90   Q 769.64 699.09 769.46 699.67   Q 769.00 701.12 770.65 702.19   Q 777.11 706.38 773.19 713.14   Q 770.74 717.36 765.57 719.36   Q 760.52 721.32 753.27 720.45   C 752.16 720.31 751.78 719.89 750.83 719.55   Z" />
<path fill="#d2d1d9" d="   M 308.78 712.46   L 308.70 712.87   Q 308.63 713.22 308.83 713.53   C 309.54 714.63 310.41 715.36 310.70 716.74   Q 311.24 719.27 309.73 721.48   Q 308.15 723.81 306.38 724.40   Q 298.51 727.19 294.76 721.99   Q 293.78 720.64 293.46 718.54   C 292.82 714.29 297.32 710.32 300.85 708.79   C 302.14 708.23 303.41 708.34 304.67 707.81   C 306.43 707.09 309.37 708.41 310.72 709.44   A 0.70 0.70 0.0 0 1 310.67 710.59   Q 309.80 711.11 308.89 711.62   Q 308.69 711.73 308.62 711.94   Q 308.53 712.20 308.78 712.46   Z   M 304.9162 721.0668   A 2.84 1.77 92.7 0 0 306.8180 718.3134   A 2.84 1.77 92.7 0 0 305.1838 715.3932   A 2.84 1.77 92.7 0 0 303.2820 718.1466   A 2.84 1.77 92.7 0 0 304.9162 721.0668   Z" />
<path fill="#d2d1d9" d="   M 276.33 730.71   Q 277.59 730.04 278.04 729.14   A 1.48 1.48 0.0 0 1 280.68 729.12   Q 285.31 738.05 279.51 746.92   Q 276.60 750.51 270.98 750.97   C 257.66 752.04 247.30 736.90 259.72 727.07   C 263.49 724.08 270.39 721.33 274.97 723.61   A 1.83 1.83 0.0 0 1 275.71 726.20   Q 274.37 728.38 273.73 731.11   A 0.92 0.91 -66.4 0 0 274.10 732.07   Q 275.41 732.98 276.33 730.71   Z" />
</g><g id="Group-fdeadf"><path fill="#fdeadf" d="   M 756.73 447.28   L 758.00 449.57   A 1.30 1.30 0.0 0 1 757.80 451.12   C 747.09 462.22 741.20 475.23 738.27 490.28   Q 737.30 495.27 739.60 500.23   C 740.82 502.87 740.89 505.74 741.88 508.43   Q 746.35 520.61 758.50 524.38   C 759.45 524.68 760.54 525.32 761.26 526.03   Q 766.55 531.25 772.92 534.87   A 0.93 0.93 0.0 0 1 773.20 536.25   Q 772.67 536.93 772.29 538.00   Q 771.89 539.16 772.74 539.62   Q 764.41 540.28 755.93 539.37   Q 746.25 535.75 738.47 529.10   C 735.47 523.94 731.89 518.97 729.44 513.86   C 722.95 500.27 723.88 483.36 730.92 469.59   Q 739.22 453.34 756.73 447.28   Z" />
<path fill="#fdeadf" d="   M 448.21 454.19   Q 449.99 458.08 448.00 462.53   Q 446.76 465.31 443.52 468.53   Q 432.41 479.60 425.75 495.54   C 424.85 497.70 424.16 499.16 424.35 501.67   C 425.18 513.02 426.80 522.35 433.87 531.55   Q 448.03 549.99 469.86 552.09   C 484.68 553.51 499.03 548.12 510.15 538.32   C 511.70 536.95 513.50 535.98 515.52 535.48   A 1.30 1.30 0.0 0 1 517.12 536.63   Q 517.24 538.13 516.81 539.64   Q 516.42 540.99 515.33 542.54   Q 512.98 545.87 514.42 547.75   Q 500.04 564.43 477.17 565.59   C 451.07 566.92 427.37 551.43 417.42 527.67   Q 408.90 507.30 417.31 486.00   Q 426.01 463.96 448.21 454.19   Z" />
<path fill="#fdeadf" d="   M 865.26 615.44   L 861.94 611.65   Q 861.57 611.22 861.01 611.20   C 858.81 611.12 857.98 610.11 855.46 610.77   Q 846.23 613.19 842.05 621.66   C 840.99 623.79 841.46 626.12 841.34 628.40   Q 841.26 629.98 842.18 631.45   Q 843.47 633.50 844.27 634.01   Q 854.77 640.69 864.38 633.11   Q 869.00 629.46 868.59 621.92   C 871.07 628.76 865.70 634.30 859.62 636.66   Q 853.05 639.22 846.26 635.91   C 837.83 631.80 839.20 622.13 844.65 616.31   C 848.12 612.61 854.48 608.81 859.85 610.19   Q 863.98 611.25 865.26 615.44   Z" />
<path fill="#fdeadf" d="   M 821.46 653.50   Q 815.55 644.88 806.51 645.40   Q 799.71 645.80 795.59 651.70   C 794.01 653.95 794.18 657.66 794.63 660.23   Q 795.14 663.12 797.97 664.78   A 0.95 0.95 0.0 0 1 797.86 666.47   L 795.75 667.35   A 1.87 1.86 -29.6 0 0 794.97 670.17   Q 797.57 673.70 802.08 675.40   C 803.09 675.78 803.88 675.38 804.78 675.99   Q 805.25 676.31 805.82 676.34   Q 809.95 676.53 812.29 675.57   Q 820.41 672.20 823.18 661.40   Q 823.15 668.02 817.44 673.20   C 810.66 679.35 800.91 677.81 794.89 671.30   C 792.89 669.14 794.03 666.31 796.99 666.09   A 0.35 0.35 0.0 0 0 797.17 665.46   C 791.59 661.36 792.20 652.36 797.66 648.11   Q 804.80 642.56 813.95 645.78   Q 819.43 647.71 821.46 653.50   Z" />
<path fill="#fdeadf" d="   M 255.57 698.64   C 257.89 699.56 260.32 701.11 258.16 703.93   C 254.47 708.76 247.20 707.40 242.81 704.42   C 235.66 699.57 235.65 691.16 240.24 684.40   C 244.81 677.67 252.89 674.16 260.78 676.18   C 264.78 677.20 267.31 680.50 265.97 684.73   C 264.40 689.71 260.35 692.52 255.81 694.81   C 254.30 695.57 253.58 697.85 255.57 698.64   Z   M 264.93 679.98   C 264.31 678.94 263.34 677.82 262.13 677.44   C 252.46 674.42 243.31 678.92 239.29 687.92   C 237.70 691.45 237.54 696.21 239.40 699.56   Q 242.77 705.64 250.37 706.44   C 252.92 706.71 257.04 705.54 257.79 702.44   Q 258.12 701.06 256.94 700.30   C 255.94 699.65 254.49 699.32 253.92 698.22   Q 252.66 695.79 255.06 694.34   C 259.79 691.49 263.64 689.56 265.33 683.80   Q 265.95 681.67 264.93 679.98   Z" />
</g><g id="Group-fcc0b0"><path fill="#fcc0b0" d="   M 610.27 570.44   C 632.60 584.72 668.74 588.29 688.07 565.82   Q 688.84 564.93 688.74 566.10   Q 688.22 572.51 686.69 578.93   C 681.87 599.22 667.03 617.48 644.36 613.79   Q 636.23 612.47 629.37 607.32   C 615.22 596.70 605.33 581.94 601.81 564.64   Q 601.61 563.65 602.40 564.28   C 604.97 566.34 607.48 568.65 610.27 570.44   Z" />
</g></g></svg>